<svg xmlns="http://www.w3.org/2000/svg" version="1.1" xmlns:xlink="http://www.w3.org/1999/xlink" xmlns:svgjs="http://svgjs.dev/svgjs" width="1500" height="424" viewBox="0 0 1500 424"><g transform="matrix(1,0,0,1,-0.9090909090909918,0.2729261417596547)"><svg viewBox="0 0 396 112" data-background-color="#ffffff" preserveAspectRatio="xMidYMid meet" height="424" width="1500" xmlns="http://www.w3.org/2000/svg" xmlns:xlink="http://www.w3.org/1999/xlink"><g id="tight-bounds" transform="matrix(1,0,0,1,0.2400000000000091,-0.07209369782330555)"><svg viewBox="0 0 395.52 112.14418739564658" height="112.14418739564658" width="395.52"><g><svg viewBox="0 0 625.8674174969777 177.45598946351754" height="112.14418739564658" width="395.52"><g><rect width="5.6363168393263825" height="129.04722822781122" x="410.27475612389105" y="24.20438061785316" fill="#61777f" opacity="1" stroke-width="0" stroke="transparent" fill-opacity="1" class="rect-qz-0" data-fill-palette-color="primary" rx="1%" id="qz-0" data-palette-color="#61777f"></rect></g><g transform="matrix(1,0,0,1,0,24.525393623394976)"><svg viewBox="0 0 395.52 128.4052022167276" height="128.4052022167276" width="395.52"><g id="textblocktransform"><svg viewBox="0 0 395.52 128.4052022167276" height="128.4052022167276" width="395.52" id="textblock"><g><svg viewBox="0 0 395.52 62.50002594033723" height="62.50002594033723" width="395.52"><g transform="matrix(1,0,0,1,0,0)"><svg width="395.52" viewBox="2 -36.05 231.98000000000002 36.55" height="62.50002594033723" data-palette-color="#61777f"><g class="wordmark-text-0" data-fill-palette-color="primary" id="text-0"><path d="M33.55-0.4L33.75-0.4 33.75 0 26.3 0 12.75-17.9 9.95-14.7 9.95-0.8 14.3-0.4 14.3 0 2 0 2-0.4 6.1-0.8 6.1-33.7 2-34.1 2-34.5 14.3-34.5 14.3-34.1 9.95-33.7 9.95-15.6 23.55-31.3Q24.35-32.25 24.35-32.85L24.35-32.85Q24.35-33.35 23.58-33.6 22.8-33.85 20.45-34.1L20.45-34.1 20.45-34.5 30.65-34.5 30.65-34.1Q27.75-33.6 26.73-33.15 25.7-32.7 24.55-31.4L24.55-31.4 15.4-20.9 29.85-2Q30.7-1.05 31.43-0.73 32.15-0.4 33.55-0.4L33.55-0.4ZM39.3 0.35Q37.4 0.35 36.17-0.98 34.95-2.3 34.95-4.4L34.95-4.4Q34.95-6.9 37.22-8.4 39.5-9.9 44.95-11L44.95-11 44.95-15.55Q44.95-18.45 44.3-19.58 43.65-20.7 42.05-20.7L42.05-20.7Q40.5-20.7 39.55-19.88 38.6-19.05 38.6-17.65L38.6-17.65 38.65-16.3Q38.65-15.05 38.17-14.33 37.7-13.6 36.85-13.6L36.85-13.6Q36.1-13.6 35.62-14.1 35.15-14.6 35.15-15.4L35.15-15.4Q35.15-16.6 36.32-18.03 37.5-19.45 39.35-20.4L39.35-20.4Q41.6-21.65 44-21.65L44-21.65Q45.4-21.65 46.37-21.1 47.35-20.55 47.8-19.55L47.8-19.55Q48.05-18.9 48.12-17.95 48.2-17 48.2-14.3L48.2-14.3 48.2-4.75Q48.2-2.95 48.55-2.27 48.9-1.6 49.8-1.6L49.8-1.6Q51.15-1.6 51.8-2.55L51.8-2.55 52-2.45Q51.4-1.2 50.4-0.53 49.4 0.15 48.25 0.15L48.25 0.15Q46.95 0.15 46.1-0.63 45.25-1.4 45.15-2.7L45.15-2.7 45-2.75Q43.85-1.3 42.35-0.48 40.85 0.35 39.3 0.35L39.3 0.35ZM41.45-1.55Q42.5-1.55 43.42-2.02 44.35-2.5 44.95-3.4L44.95-3.4 44.95-10.45Q42.35-9.8 40.92-9.15 39.5-8.5 38.9-7.6 38.3-6.7 38.3-5.35L38.3-5.35Q38.3-3.6 39.15-2.58 40-1.55 41.45-1.55L41.45-1.55ZM63.65 0.5Q66.5 0.5 68.8-1.05 71.1-2.6 72.4-5.3 73.7-8 73.7-11.4L73.7-11.4Q73.7-14.45 72.65-16.78 71.6-19.1 69.7-20.4 67.8-21.7 65.35-21.7L65.35-21.7Q61.85-21.7 59.2-18.85L59.2-18.85 59.2-36.05 58.8-36.05 53-34.1 53-33.75 55.95-32.65 55.95 0 56.35 0 57.85-1.35 58.05-1.35Q60.5 0.5 63.65 0.5L63.65 0.5ZM63.6 0Q61.6 0 60.4-1.38 59.2-2.75 59.2-5.05L59.2-5.05 59.2-18.1Q59.95-19.1 61.12-19.65 62.3-20.2 63.65-20.2L63.65-20.2Q66.6-20.2 68.27-17.55 69.95-14.9 69.95-10.35L69.95-10.35Q69.95-5.65 68.22-2.83 66.5 0 63.6 0L63.6 0ZM82.19 0.35Q80.29 0.35 79.07-0.98 77.84-2.3 77.84-4.4L77.84-4.4Q77.84-6.9 80.12-8.4 82.39-9.9 87.84-11L87.84-11 87.84-15.55Q87.84-18.45 87.19-19.58 86.54-20.7 84.94-20.7L84.94-20.7Q83.39-20.7 82.44-19.88 81.49-19.05 81.49-17.65L81.49-17.65 81.54-16.3Q81.54-15.05 81.07-14.33 80.59-13.6 79.74-13.6L79.74-13.6Q78.99-13.6 78.52-14.1 78.04-14.6 78.04-15.4L78.04-15.4Q78.04-16.6 79.22-18.03 80.39-19.45 82.24-20.4L82.24-20.4Q84.49-21.65 86.89-21.65L86.89-21.65Q88.29-21.65 89.27-21.1 90.24-20.55 90.69-19.55L90.69-19.55Q90.94-18.9 91.02-17.95 91.09-17 91.09-14.3L91.09-14.3 91.09-4.75Q91.09-2.95 91.44-2.27 91.79-1.6 92.69-1.6L92.69-1.6Q94.04-1.6 94.69-2.55L94.69-2.55 94.89-2.45Q94.29-1.2 93.29-0.53 92.29 0.15 91.14 0.15L91.14 0.15Q89.84 0.15 88.99-0.63 88.14-1.4 88.04-2.7L88.04-2.7 87.89-2.75Q86.74-1.3 85.24-0.48 83.74 0.35 82.19 0.35L82.19 0.35ZM84.34-1.55Q85.39-1.55 86.32-2.02 87.24-2.5 87.84-3.4L87.84-3.4 87.84-10.45Q85.24-9.8 83.82-9.15 82.39-8.5 81.79-7.6 81.19-6.7 81.19-5.35L81.19-5.35Q81.19-3.6 82.04-2.58 82.89-1.55 84.34-1.55L84.34-1.55ZM107.89-21.7Q108.89-21.7 109.59-21.03 110.29-20.35 110.29-19.4L110.29-19.4Q110.29-18.6 109.74-18.05 109.19-17.5 108.39-17.5L108.39-17.5Q107.89-17.5 107.57-17.73 107.24-17.95 106.89-18.4L106.89-18.4Q106.54-18.8 106.27-19 105.99-19.2 105.59-19.2L105.59-19.2Q104.79-19.2 103.97-18.25 103.14-17.3 102.79-16.05L102.79-16.05 102.79-0.8 106.79-0.4 106.79 0 96.49 0 96.49-0.4 99.54-0.8 99.54-18.3 96.59-19.4 96.59-19.75 102.24-21.7 102.64-21.7 102.64-17.3Q105.44-21.7 107.89-21.7L107.89-21.7Z" fill="#61777f" data-fill-palette-color="primary"></path><path d="M141.39-18.2Q145.74-17.6 148.04-15.35 150.34-13.1 150.34-9.45L150.34-9.45Q150.34-5.45 147.56-2.73 144.79 0 139.04 0L139.04 0 124.29 0 124.29-0.4 128.39-0.8 128.39-33.7 124.29-34.1 124.29-34.5 136.74-34.5Q142.64-34.5 145.74-32.4 148.84-30.3 148.84-26.3L148.84-26.3Q148.84-23.1 146.89-21 144.94-18.9 141.39-18.4L141.39-18.4 141.39-18.2ZM136.59-33.9L132.24-33.9 132.24-18.55 138.04-18.55Q141.39-18.55 142.86-20.5 144.34-22.45 144.34-26.3L144.34-26.3Q144.34-33.9 136.59-33.9L136.59-33.9ZM137.84-0.6Q145.59-0.6 145.59-9.3L145.59-9.3Q145.59-13.85 143.64-15.9 141.69-17.95 137.84-17.95L137.84-17.95 132.24-17.95 132.24-0.6 137.84-0.6ZM171.54-5.1L171.99-5.7 172.19-5.6 171.99-5.05Q170.99-2.4 169.01-0.95 167.04 0.5 164.29 0.5L164.29 0.5Q161.59 0.5 159.49-0.9 157.39-2.3 156.21-4.8 155.04-7.3 155.04-10.55L155.04-10.55Q155.04-13.8 156.29-16.35 157.54-18.9 159.84-20.3 162.14-21.7 165.09-21.7L165.09-21.7Q168.59-21.7 170.46-19.63 172.34-17.55 172.39-13.6L172.39-13.6 172.09-13.35 158.59-13.35Q158.49-12.05 158.49-11.3L158.49-11.3Q158.49-6.75 160.34-4.38 162.19-2 165.49-2L165.49-2Q167.19-2 168.76-2.78 170.34-3.55 171.54-5.1L171.54-5.1ZM164.54-21.15Q162.19-21.15 160.64-19.2 159.09-17.25 158.64-13.9L158.64-13.9 168.34-14.25Q168.49-14.85 168.49-16.25L168.49-16.25Q168.49-18.95 167.46-20.05 166.44-21.15 164.54-21.15L164.54-21.15ZM186.83-21.7Q187.83-21.7 188.53-21.03 189.23-20.35 189.23-19.4L189.23-19.4Q189.23-18.6 188.68-18.05 188.13-17.5 187.33-17.5L187.33-17.5Q186.83-17.5 186.51-17.73 186.18-17.95 185.83-18.4L185.83-18.4Q185.48-18.8 185.21-19 184.93-19.2 184.53-19.2L184.53-19.2Q183.73-19.2 182.91-18.25 182.08-17.3 181.73-16.05L181.73-16.05 181.73-0.8 185.73-0.4 185.73 0 175.43 0 175.43-0.4 178.48-0.8 178.48-18.3 175.53-19.4 175.53-19.75 181.18-21.7 181.58-21.7 181.58-17.3Q184.38-21.7 186.83-21.7L186.83-21.7ZM193.18-28.9Q193.18-29.95 193.86-30.63 194.53-31.3 195.58-31.3L195.58-31.3Q196.63-31.3 197.31-30.63 197.98-29.95 197.98-28.9L197.98-28.9Q197.98-27.85 197.31-27.18 196.63-26.5 195.58-26.5L195.58-26.5Q194.53-26.5 193.86-27.18 193.18-27.85 193.18-28.9L193.18-28.9ZM197.48-0.8L197.48-21.7 197.08-21.7 191.28-19.75 191.28-19.4 194.23-18.3 194.23-0.8 191.18-0.4 191.18 0 200.53 0 200.53-0.4 197.48-0.8ZM208.08-26L202.58-20.7 202.68-20.45 205.03-20.45 205.03-4.45Q205.03-2.9 205.38-1.95 205.73-1 206.58-0.4L206.58-0.4Q207.83 0.5 209.43 0.5L209.43 0.5Q210.98 0.5 212.35-0.4 213.73-1.3 214.48-2.85L214.48-2.85 214.28-3Q213.38-2.1 212.63-1.7 211.88-1.3 211.08-1.3L211.08-1.3Q209.43-1.3 208.83-2.5L208.83-2.5Q208.28-3.35 208.28-5.1L208.28-5.1 208.28-20.4 213.68-20.4 213.98-21.2 208.28-21.2 208.28-25.95 208.08-26ZM221.28 0.35Q219.38 0.35 218.15-0.98 216.93-2.3 216.93-4.4L216.93-4.4Q216.93-6.9 219.2-8.4 221.48-9.9 226.93-11L226.93-11 226.93-15.55Q226.93-18.45 226.28-19.58 225.63-20.7 224.03-20.7L224.03-20.7Q222.48-20.7 221.53-19.88 220.58-19.05 220.58-17.65L220.58-17.65 220.63-16.3Q220.63-15.05 220.15-14.33 219.68-13.6 218.83-13.6L218.83-13.6Q218.08-13.6 217.6-14.1 217.13-14.6 217.13-15.4L217.13-15.4Q217.13-16.6 218.3-18.03 219.48-19.45 221.33-20.4L221.33-20.4Q223.58-21.65 225.98-21.65L225.98-21.65Q227.38-21.65 228.35-21.1 229.33-20.55 229.78-19.55L229.78-19.55Q230.03-18.9 230.1-17.95 230.18-17 230.18-14.3L230.18-14.3 230.18-4.75Q230.18-2.95 230.53-2.27 230.88-1.6 231.78-1.6L231.78-1.6Q233.13-1.6 233.78-2.55L233.78-2.55 233.98-2.45Q233.38-1.2 232.38-0.53 231.38 0.15 230.23 0.15L230.23 0.15Q228.93 0.15 228.08-0.63 227.23-1.4 227.13-2.7L227.13-2.7 226.98-2.75Q225.83-1.3 224.33-0.48 222.83 0.35 221.28 0.35L221.28 0.35ZM223.43-1.55Q224.48-1.55 225.4-2.02 226.33-2.5 226.93-3.4L226.93-3.4 226.93-10.45Q224.33-9.8 222.9-9.15 221.48-8.5 220.88-7.6 220.28-6.7 220.28-5.35L220.28-5.35Q220.28-3.6 221.13-2.58 221.98-1.55 223.43-1.55L223.43-1.55Z" fill="#61777f" data-fill-palette-color="primary"></path></g></svg></g></svg></g><g transform="matrix(1,0,0,1,163.31020799999996,77.25478206422828)"><svg viewBox="0 0 232.20979200000002 51.150420152499294" height="51.150420152499294" width="232.20979200000002"><g transform="matrix(1,0,0,1,0,0)"><svg width="232.20979200000002" viewBox="1.9 -38.5 177.04 39" height="51.150420152499294" data-palette-color="#61777f"><path d="M19.9 0L1.9 0 1.9-1.9Q3.85-1.95 5.03-2.2 6.2-2.45 6.83-3.05 7.45-3.65 7.68-4.75 7.9-5.85 7.9-7.6L7.9-7.6 7.9-30.9Q7.9-32.65 7.73-33.73 7.55-34.8 7.03-35.43 6.5-36.05 5.5-36.27 4.5-36.5 2.9-36.6L2.9-36.6 2.9-38.5 17.85-38.5Q24.6-38.5 28.35-36.1 32.1-33.7 32.1-29.35L32.1-29.35Q32.1-26.05 30.03-23.95 27.95-21.85 23.45-20.5L23.45-20.5 23.45-20.3Q25-20.15 26.15-19.95 27.3-19.75 28.2-19.48 29.1-19.2 29.88-18.8 30.65-18.4 31.4-17.9L31.4-17.9Q35.85-14.75 35.85-10L35.85-10Q35.85-7.35 34.38-5.08 32.9-2.8 30.25-1.5L30.25-1.5Q29.4-1.05 28.5-0.78 27.6-0.5 26.4-0.33 25.2-0.15 23.63-0.08 22.05 0 19.9 0L19.9 0ZM20.05-2.15L20.05-2.15Q29.1-2.15 29.1-9.9L29.1-9.9Q29.1-15.55 24.45-17.8L24.45-17.8Q23.65-18.15 22.9-18.4 22.15-18.65 21.15-18.78 20.15-18.9 18.78-18.95 17.4-19 15.4-19L15.4-19 13.15-19 13.15-7.85Q13.15-4.8 14.75-3.48 16.35-2.15 20.05-2.15ZM13.15-21.5L15.95-21.5Q17.5-21.5 18.55-21.55 19.6-21.6 20.35-21.73 21.1-21.85 21.68-22.08 22.25-22.3 22.85-22.7L22.85-22.7Q24.45-23.7 25.13-25.1 25.8-26.5 25.8-28.75L25.8-28.75Q25.8-32.7 23.88-34.43 21.95-36.15 17.85-36.15L17.85-36.15 14-36.15Q13.15-36.15 13.15-35.3L13.15-35.3 13.15-21.5ZM55.8-10.85L55.8-14.8Q52.95-13.7 50.97-12.65 49-11.6 47.8-10.55 46.6-9.5 46.07-8.45 45.55-7.4 45.55-6.3L45.55-6.3Q45.55-4.65 46.65-3.6 47.75-2.55 49.55-2.55L49.55-2.55Q50.85-2.55 51.97-3.2 53.1-3.85 53.95-4.98 54.8-6.1 55.3-7.63 55.8-9.15 55.8-10.85L55.8-10.85ZM48.6-13.8L55.8-16.95 55.8-19Q55.8-25.1 50.6-25.1L50.6-25.1Q49.75-25.1 49.15-24.95 48.55-24.8 48.15-24.45 47.75-24.1 47.42-23.45 47.1-22.8 46.8-21.85L46.8-21.85Q46.25-20.4 45.72-19.93 45.2-19.45 44.2-19.45L44.2-19.45Q41.7-19.45 41.7-21.95L41.7-21.95Q41.7-24.35 44.25-25.68 46.8-27 51.5-27L51.5-27Q56.5-27 58.6-25.23 60.7-23.45 60.7-19.2L60.7-19.2 60.7-8Q60.7-2.3 62.95-2.3L62.95-2.3Q63.65-2.3 64.3-2.48 64.95-2.65 65.4-3.4L65.4-3.4 66.1-2.2Q65.5-1.05 63.9-0.28 62.3 0.5 60.55 0.5L60.55 0.5Q58.35 0.5 57.27-0.9 56.2-2.3 56.2-4.85L56.2-4.85 55.95-4.85Q54.65-2.4 52.35-0.98 50.05 0.45 47.25 0.45L47.25 0.45Q44.1 0.45 42.3-1.15 40.5-2.75 40.5-5.45L40.5-5.45Q40.5-6.65 40.92-7.75 41.35-8.85 42.3-9.85 43.25-10.85 44.8-11.83 46.35-12.8 48.6-13.8L48.6-13.8ZM77.15-9.65L77.15-7.95Q77.15-5.9 77.25-4.7 77.35-3.5 77.77-2.88 78.2-2.25 79-2.05 79.8-1.85 81.25-1.75L81.25-1.75 81.25 0 67.95 0 67.95-1.75Q69.4-1.8 70.25-2.02 71.1-2.25 71.55-2.85 72-3.45 72.12-4.58 72.25-5.7 72.25-7.6L72.25-7.6 72.25-13.45Q72.25-16.85 72.17-18.75 72.1-20.65 71.67-21.55 71.25-22.45 70.35-22.63 69.45-22.8 67.85-22.8L67.85-22.8 67.85-24.55 76.6-26.45 77.3-20.25 77.5-20.25Q78.15-21.75 79.12-23 80.1-24.25 81.25-25.13 82.4-26 83.65-26.5 84.9-27 86.2-27L86.2-27Q87.8-27 88.72-26.23 89.65-25.45 89.65-24.15L89.65-24.15Q89.65-22.95 88.9-22.28 88.15-21.6 86.75-21.6L86.75-21.6Q85.95-21.6 85.4-21.8 84.85-22 84.42-22.23 84-22.45 83.62-22.65 83.25-22.85 82.8-22.85L82.8-22.85Q81.45-22.85 80.1-21.13 78.75-19.4 78-16.75L78-16.75Q77.6-15.3 77.37-13.48 77.15-11.65 77.15-9.65L77.15-9.65ZM108.24 0L90.24 0 90.24-1.9Q92.19-1.95 93.37-2.2 94.54-2.45 95.17-3.05 95.79-3.65 96.02-4.75 96.24-5.85 96.24-7.6L96.24-7.6 96.24-30.9Q96.24-32.65 96.07-33.73 95.89-34.8 95.37-35.43 94.84-36.05 93.84-36.27 92.84-36.5 91.24-36.6L91.24-36.6 91.24-38.5 106.19-38.5Q112.94-38.5 116.69-36.1 120.44-33.7 120.44-29.35L120.44-29.35Q120.44-26.05 118.37-23.95 116.29-21.85 111.79-20.5L111.79-20.5 111.79-20.3Q113.34-20.15 114.49-19.95 115.64-19.75 116.54-19.48 117.44-19.2 118.22-18.8 118.99-18.4 119.74-17.9L119.74-17.9Q124.19-14.75 124.19-10L124.19-10Q124.19-7.35 122.72-5.08 121.24-2.8 118.59-1.5L118.59-1.5Q117.74-1.05 116.84-0.78 115.94-0.5 114.74-0.33 113.54-0.15 111.97-0.08 110.39 0 108.24 0L108.24 0ZM108.39-2.15L108.39-2.15Q117.44-2.15 117.44-9.9L117.44-9.9Q117.44-15.55 112.79-17.8L112.79-17.8Q111.99-18.15 111.24-18.4 110.49-18.65 109.49-18.78 108.49-18.9 107.12-18.95 105.74-19 103.74-19L103.74-19 101.49-19 101.49-7.85Q101.49-4.8 103.09-3.48 104.69-2.15 108.39-2.15ZM101.49-21.5L104.29-21.5Q105.84-21.5 106.89-21.55 107.94-21.6 108.69-21.73 109.44-21.85 110.02-22.08 110.59-22.3 111.19-22.7L111.19-22.7Q112.79-23.7 113.47-25.1 114.14-26.5 114.14-28.75L114.14-28.75Q114.14-32.7 112.22-34.43 110.29-36.15 106.19-36.15L106.19-36.15 102.34-36.15Q101.49-36.15 101.49-35.3L101.49-35.3 101.49-21.5ZM151.24-6.05L152.79-4.65Q148.54 0.5 142.24 0.5L142.24 0.5Q139.29 0.5 136.89-0.48 134.49-1.45 132.77-3.23 131.04-5 130.09-7.48 129.14-9.95 129.14-12.95L129.14-12.95Q129.14-16 130.14-18.6 131.14-21.2 132.97-23.05 134.79-24.9 137.32-25.95 139.84-27 142.84-27L142.84-27Q147.69-27 150.34-24.38 152.99-21.75 152.99-16.85L152.99-16.85Q152.99-16.15 152.72-16 152.44-15.85 151.44-15.85L151.44-15.85 134.99-15.85Q134.89-15.45 134.84-14.88 134.79-14.3 134.79-13.6L134.79-13.6Q134.79-11 135.42-8.88 136.04-6.75 137.22-5.25 138.39-3.75 140.02-2.93 141.64-2.1 143.64-2.1L143.64-2.1Q145.74-2.1 147.54-3.03 149.34-3.95 151.24-6.05L151.24-6.05ZM135.34-18.15L144.54-18.15Q145.54-18.15 146.14-18.2 146.74-18.25 147.04-18.4 147.34-18.55 147.44-18.82 147.54-19.1 147.54-19.55L147.54-19.55Q147.54-21.85 146.07-23.23 144.59-24.6 142.04-24.6L142.04-24.6Q136.64-24.6 135.34-18.15L135.34-18.15ZM166.44-9.65L166.44-7.95Q166.44-5.9 166.54-4.7 166.64-3.5 167.06-2.88 167.49-2.25 168.29-2.05 169.09-1.85 170.54-1.75L170.54-1.75 170.54 0 157.24 0 157.24-1.75Q158.69-1.8 159.54-2.02 160.39-2.25 160.84-2.85 161.29-3.45 161.41-4.58 161.54-5.7 161.54-7.6L161.54-7.6 161.54-13.45Q161.54-16.85 161.46-18.75 161.39-20.65 160.96-21.55 160.54-22.45 159.64-22.63 158.74-22.8 157.14-22.8L157.14-22.8 157.14-24.55 165.89-26.45 166.59-20.25 166.79-20.25Q167.44-21.75 168.41-23 169.39-24.25 170.54-25.13 171.69-26 172.94-26.5 174.19-27 175.49-27L175.49-27Q177.09-27 178.01-26.23 178.94-25.45 178.94-24.15L178.94-24.15Q178.94-22.95 178.19-22.28 177.44-21.6 176.04-21.6L176.04-21.6Q175.24-21.6 174.69-21.8 174.14-22 173.71-22.23 173.29-22.45 172.91-22.65 172.54-22.85 172.09-22.85L172.09-22.85Q170.74-22.85 169.39-21.13 168.04-19.4 167.29-16.75L167.29-16.75Q166.89-15.3 166.66-13.48 166.44-11.65 166.44-9.65L166.44-9.65Z" opacity="1" transform="matrix(1,0,0,1,0,0)" fill="#61777f" class="slogan-text-1" data-fill-palette-color="secondary" id="text-1"></path></svg></g></svg></g></svg></g></svg></g><g transform="matrix(1,0,0,1,430.6658290871085,0)"><svg viewBox="0 0 195.2015884098693 177.45598946351754" height="177.45598946351754" width="195.2015884098693"><g><svg xmlns="http://www.w3.org/2000/svg" xmlns:xlink="http://www.w3.org/1999/xlink" version="1.1" x="0" y="0" viewBox="4 3 89.1 81" enable-background="new 0 0 100 100" xml:space="preserve" height="177.45598946351754" width="195.2015884098693" class="icon-icon-0" data-fill-palette-color="accent" id="icon-0"><g fill="#61777f" data-fill-palette-color="accent"><polygon points="4,84 93.1,84 93.1,11.1 44.5,11.1 44.5,19.2 85,19.2 85,75.899 12.1,75.899 12.1,51.601 4,51.601  " fill="#61777f" data-fill-palette-color="accent"></polygon><g fill="#61777f" data-fill-palette-color="accent"><rect x="20.2" y="3" width="8.1" height="8.1" fill="#61777f" data-fill-palette-color="accent"></rect><polygon points="28.3,35.4 28.3,27.3 28.3,19.2 20.2,19.2 12.1,19.2 12.1,27.3 20.2,27.3 20.2,35.4 12.1,35.4 12.1,43.5     20.2,43.5 28.3,43.5 36.399,43.5 36.399,35.4   " fill="#61777f" data-fill-palette-color="accent"></polygon></g></g></svg></g></svg></g></svg></g><defs></defs></svg><rect width="395.52" height="112.14418739564658" fill="none" stroke="none" visibility="hidden"></rect></g></svg></g></svg>