<svg xmlns="http://www.w3.org/2000/svg" version="1.1" xmlns:xlink="http://www.w3.org/1999/xlink" xmlns:svgjs="http://svgjs.dev/svgjs" width="1500" height="1500" viewBox="0 0 1500 1500"><rect width="1500" height="1500" fill="#ffffff"></rect><g transform="matrix(0.6666666666666666,0,0,0.6666666666666666,250.10666666666668,577.6498533333333)"><svg viewBox="0 0 375 129" data-background-color="#ffffff" preserveAspectRatio="xMidYMid meet" height="516" width="1500" xmlns="http://www.w3.org/2000/svg" xmlns:xlink="http://www.w3.org/1999/xlink"><g id="tight-bounds" transform="matrix(1,0,0,1,-0.03976000000000113,0.13130500000002598)"><svg viewBox="0 0 375.07953 128.73714999999987" height="128.73714999999987" width="375.07953"><g><svg></svg></g><g><svg viewBox="0 0 375.07953 128.73714999999987" height="128.73714999999987" width="375.07953"><g transform="matrix(1,0,0,1,-10.22024,-61.63361000000002)"><path d="M10.22 185.566v-123.932h375.08v123.932l-21.393 0v-4.014h17.378v-115.904h-367.05v115.904l217.445 0 0 4.014z" fill="#919591" fill-rule="nonzero" stroke="none" stroke-width="1" stroke-linecap="butt" stroke-linejoin="miter" stroke-miterlimit="10" stroke-dasharray="" stroke-dashoffset="0" font-family="none" font-weight="none" font-size="none" text-anchor="none" style="mix-blend-mode: normal" data-fill-palette-color="tertiary"></path><g><path d="M250.284 189.896h-6.561v-0.263l0.553-0.211c0.351-0.123 0.58-0.29 0.685-0.5 0.105-0.211 0.158-0.483 0.159-0.817v0-13.781c0-0.351-0.053-0.632-0.159-0.844-0.105-0.211-0.334-0.378-0.685-0.5v0l-0.553-0.211v-0.264h6.561v0.264l-0.579 0.237c-0.299 0.105-0.501 0.264-0.607 0.474-0.105 0.211-0.158 0.501-0.158 0.87v0 13.781c0 0.351 0.058 0.624 0.174 0.817 0.112 0.193 0.336 0.351 0.67 0.474v0l0.5 0.211zM260.139 189.896h-6.693v-0.263l0.343-0.105c0.351-0.105 0.536-0.281 0.553-0.527 0.018-0.246-0.088-0.527-0.316-0.844v0l-5.059-7.193 6.666-6.799c0.246-0.246 0.383-0.483 0.411-0.711 0.025-0.228-0.148-0.404-0.516-0.527v0l-0.448-0.158v-0.264h3.847v0.264l-0.685 0.211c-0.386 0.123-0.694 0.272-0.922 0.448-0.228 0.176-0.492 0.413-0.791 0.711v0l-4.717 4.822 6.193 9.038c0.264 0.386 0.515 0.703 0.753 0.949 0.235 0.246 0.573 0.439 1.012 0.58v0l0.369 0.105zM267.649 189.896h-6.693v-0.263l0.474-0.184c0.351-0.141 0.594-0.316 0.728-0.527 0.13-0.211 0.195-0.492 0.195-0.844v0-13.754c0-0.369-0.065-0.659-0.195-0.87-0.134-0.211-0.376-0.378-0.728-0.501v0l-0.474-0.184v-0.264h7.562c2.143 0 3.689 0.39 4.638 1.17 0.949 0.783 1.423 1.772 1.423 2.967v0c0 0.896-0.346 1.707-1.038 2.435-0.696 0.731-1.887 1.245-3.573 1.544v0c1.932 0.211 3.346 0.715 4.242 1.513 0.896 0.801 1.344 1.772 1.344 2.914v0c0 0.562-0.123 1.128-0.369 1.697-0.246 0.573-0.662 1.096-1.249 1.57-0.59 0.474-1.395 0.856-2.414 1.144-1.019 0.292-2.31 0.437-3.873 0.437zM266.252 173.032v7.563h1.133c1.177 0 2.025-0.272 2.546-0.817 0.516-0.545 0.775-1.493 0.775-2.846v0c0-1.405-0.237-2.407-0.712-3.004-0.474-0.597-1.247-0.896-2.319-0.896v0zM266.252 181.122v8.247h1.318c1.318 0 2.298-0.351 2.941-1.054 0.639-0.703 0.959-1.801 0.959-3.293v0c0-1.405-0.307-2.407-0.923-3.004-0.615-0.597-1.625-0.896-3.03-0.896v0zM282.379 190.371v0c-0.966 0-1.95-0.118-2.952-0.353-1.001-0.239-1.836-0.552-2.503-0.938v0l0.132-3.584h0.263l0.817 1.713c0.246 0.492 0.509 0.926 0.791 1.301 0.281 0.379 0.668 0.675 1.159 0.886v0c0.351 0.176 0.69 0.293 1.017 0.353 0.323 0.063 0.687 0.095 1.091 0.095v0c1.072 0 1.92-0.29 2.546-0.87 0.622-0.58 0.933-1.326 0.932-2.24v0c0-0.861-0.211-1.534-0.632-2.018-0.422-0.481-1.098-0.95-2.029-1.407v0l-1.08-0.474c-1.511-0.668-2.691-1.437-3.542-2.309-0.854-0.868-1.281-2.022-1.28-3.462v0c0-1.036 0.269-1.932 0.806-2.688 0.534-0.755 1.281-1.335 2.24-1.739 0.956-0.404 2.075-0.606 3.357-0.606v0c0.931 0 1.815 0.123 2.651 0.369 0.833 0.246 1.556 0.58 2.171 1.001v0l-0.158 3.162h-0.264l-1.08-1.976c-0.299-0.615-0.597-1.05-0.896-1.307-0.299-0.253-0.641-0.432-1.028-0.537v0c-0.228-0.07-0.439-0.119-0.632-0.148-0.193-0.025-0.439-0.037-0.738-0.037v0c-0.896 0-1.651 0.258-2.266 0.775-0.615 0.52-0.922 1.219-0.922 2.097v0c0 0.896 0.237 1.611 0.711 2.145 0.474 0.538 1.168 1.017 2.082 1.439v0l1.212 0.527c1.686 0.738 2.899 1.523 3.636 2.356 0.738 0.836 1.107 1.913 1.107 3.23v0c0 1.546-0.583 2.805-1.75 3.779-1.17 0.977-2.826 1.465-4.969 1.465zM294.79 189.896h-4.006v-0.263l0.87-0.264c0.316-0.088 0.545-0.26 0.685-0.516 0.141-0.253 0.211-0.555 0.211-0.906v0-12.675c-0.193-0.422-0.346-0.738-0.459-0.948-0.116-0.211-0.244-0.392-0.384-0.543-0.141-0.148-0.334-0.336-0.58-0.564v0l-0.448-0.448v-0.264h4.664l8.748 11.937v-9.934c0-0.351-0.056-0.668-0.168-0.949-0.116-0.281-0.35-0.466-0.701-0.553v0l-0.87-0.237v-0.264h3.768v0.264l-0.711 0.237c-0.316 0.105-0.509 0.29-0.58 0.553-0.07 0.264-0.105 0.571-0.105 0.923v0 15.494h-1.476l-10.066-13.834v11.805c0 0.351 0.053 0.65 0.158 0.895 0.105 0.246 0.325 0.422 0.659 0.527v0l0.791 0.264zM314.21 176.827v0c1.142 0 2.117 0.232 2.925 0.695 0.808 0.467 1.428 1.1 1.86 1.898 0.429 0.801 0.643 1.711 0.643 2.73v0c0 0.193-0.009 0.39-0.027 0.59-0.018 0.204-0.053 0.385-0.105 0.543v0h-7.852c0.018 1.897 0.357 3.262 1.017 4.094 0.657 0.836 1.635 1.254 2.935 1.255v0c0.878 0 1.59-0.141 2.135-0.422 0.545-0.281 1.054-0.694 1.528-1.238v0l0.263 0.237c-0.545 0.966-1.268 1.722-2.171 2.266-0.906 0.545-1.992 0.817-3.257 0.817v0c-1.247 0-2.354-0.269-3.32-0.807-0.966-0.534-1.722-1.302-2.266-2.303-0.545-1.001-0.817-2.196-0.817-3.583v0c0-1.44 0.316-2.667 0.949-3.679 0.632-1.008 1.446-1.776 2.44-2.303 0.991-0.527 2.031-0.79 3.12-0.79zM314.131 177.354v0c-0.509 0-0.943 0.153-1.302 0.458-0.362 0.309-0.643 0.854-0.843 1.634-0.204 0.783-0.314 1.887-0.332 3.31v0h4.506c0.176-1.915 0.105-3.294-0.211-4.137-0.316-0.843-0.922-1.265-1.818-1.265zM327.885 189.976h-1.528l-4.058-11.147c-0.193-0.562-0.58-0.957-1.159-1.185v0l-0.448-0.158v-0.264h6.456v0.264l-0.396 0.105c-0.685 0.211-0.913 0.632-0.685 1.265v0l2.451 7.457 2.187-5.797-0.501-1.502c-0.123-0.386-0.251-0.682-0.385-0.886-0.13-0.2-0.3-0.344-0.511-0.432v0l-0.448-0.21v-0.264h5.455v0.264l-0.369 0.158c-0.264 0.105-0.422 0.246-0.474 0.421-0.053 0.176-0.018 0.439 0.105 0.791v0l2.424 7.325 2.503-7.273c0.246-0.668 0.114-1.089-0.395-1.264v0l-0.579-0.158v-0.264h3.162v0.264l-0.633 0.184c-0.299 0.088-0.513 0.223-0.643 0.406-0.134 0.186-0.253 0.437-0.358 0.753v0l-3.795 11.146h-1.343l-2.925-8.616zM346.093 190.292v0c-0.861 0-1.634-0.1-2.318-0.301-0.685-0.204-1.318-0.455-1.898-0.753v0l0.027-3.136h0.263l0.896 1.581c0.386 0.703 0.813 1.224 1.281 1.565 0.464 0.344 1.056 0.516 1.776 0.517v0c0.843 0 1.525-0.19 2.044-0.569 0.516-0.376 0.775-0.88 0.775-1.513v0c0-0.58-0.184-1.054-0.553-1.423-0.369-0.369-1.054-0.703-2.056-1.001v0l-1.106-0.343c-1.072-0.316-1.915-0.808-2.53-1.475-0.615-0.668-0.922-1.484-0.922-2.451v0c0-1.159 0.457-2.143 1.37-2.951 0.913-0.808 2.222-1.212 3.926-1.212v0c0.685 0 1.332 0.074 1.94 0.221 0.604 0.151 1.188 0.376 1.749 0.675v0l-0.158 2.845h-0.263l-0.923-1.633c-0.334-0.58-0.662-0.989-0.985-1.228-0.327-0.235-0.815-0.353-1.465-0.353v0c-0.597 0-1.159 0.167-1.687 0.5-0.527 0.334-0.79 0.808-0.79 1.423v0c0 0.597 0.225 1.072 0.675 1.423 0.446 0.351 1.108 0.676 1.986 0.975v0l1.186 0.343c1.265 0.386 2.17 0.917 2.714 1.591 0.545 0.678 0.817 1.491 0.817 2.44v0c0 1.282-0.504 2.31-1.513 3.083-1.012 0.773-2.431 1.159-4.258 1.16z" fill="#636365" fill-rule="nonzero" stroke="none" stroke-width="1" stroke-linecap="butt" stroke-linejoin="miter" stroke-miterlimit="10" stroke-dasharray="" stroke-dashoffset="0" font-family="none" font-weight="none" font-size="none" text-anchor="none" style="mix-blend-mode: normal" data-fill-palette-color="secondary" id="text-1"></path></g></g><g transform="matrix(1,0,0,1,29.33176499999999,42.1116579659318)"><svg viewBox="0 0 316.416 44.51383406813627" height="44.51383406813627" width="316.416"><g><svg viewBox="0 0 316.416 44.51383406813627" height="44.51383406813627" width="316.416"><g><svg viewBox="0 0 316.416 44.51383406813627" height="44.51383406813627" width="316.416"><g><svg viewBox="0 0 316.416 44.51383406813627" height="44.51383406813627" width="316.416"><g id="textblocktransform"><svg viewBox="0 0 316.416 44.51383406813627" height="44.51383406813627" width="316.416" id="textblock"><g><svg viewBox="0 0 316.416 44.51383406813627" height="44.51383406813627" width="316.416"><g transform="matrix(1,0,0,1,0,0)"><svg width="316.416" viewBox="2.29 -33.89 243.63 34.28" height="44.51383406813627" data-palette-color="#919591"><path d="M29.1 0L17.72 0 17.63-1.86 20.56-2.34Q20.21-2.88 19.75-3.47 19.29-4.05 18.65-4.79L18.65-4.79 11.18-13.28 9.13-13.28 9.13-15.09 11.72-15.77 21.78-26.17 18.8-26.81 18.9-28.66 28.32-28.66 28.42-26.71 25.59-26.22 13.82-15.09 13.96-16.55 23.29-6.15Q24.12-5.27 24.73-4.57 25.34-3.86 25.83-3.34 26.32-2.83 26.66-2.49L26.66-2.49 29.1-1.9 29.1 0ZM12.7 0L2.49 0 2.34-1.86 5.32-2.54Q5.42-2.88 5.47-4.69 5.52-6.49 5.52-9.72L5.52-9.72 5.52-18.9Q5.52-21.09 5.49-22.63 5.47-24.17 5.44-25.05 5.42-25.93 5.32-26.12L5.32-26.12 2.29-26.81 2.44-28.66 12.84-28.66 12.94-26.81 9.96-26.12Q9.86-25.98 9.79-25.15 9.72-24.32 9.69-22.78 9.67-21.24 9.67-18.9L9.67-18.9 9.67-9.72Q9.67-6.49 9.74-4.69 9.81-2.88 9.86-2.54L9.86-2.54 12.84-1.86 12.7 0ZM37.79 0.39L37.79 0.39Q35.84 0.39 34.32-0.39 32.81-1.17 31.96-2.39 31.1-3.61 31.1-4.93L31.1-4.93Q31.1-6.54 32.15-7.62 33.2-8.69 35.69-9.52L35.69-9.52 43.11-12.01 43.11-14.5Q43.11-15.72 42.38-16.72 41.65-17.72 40.43-18.31 39.21-18.9 37.69-18.9L37.69-18.9Q36.47-18.9 36.03-18.38 35.59-17.87 35.5-16.36L35.5-16.36 35.4-14.31Q33.64-13.92 32.42-14.43 31.2-14.94 31.2-16.11L31.2-16.11Q31.2-16.94 31.93-17.77 32.66-18.6 33.84-19.36 35.01-20.12 36.35-20.65 37.69-21.19 39.01-21.39L39.01-21.39Q42.58-21.39 44.77-19.51 46.97-17.63 47.02-14.5L47.02-14.5 46.92-6.3Q46.92-5.42 46.99-4.52 47.07-3.61 47.21-3.17L47.21-3.17 50.34-2.59 50.34-1.07 47.95-0.2Q47.26 0.1 46.68 0.24 46.09 0.39 45.7 0.39L45.7 0.39Q44.19 0.39 43.75-1.32L43.75-1.32 43.21-3.22 43.94-3.22Q42.33-1.42 40.84-0.51 39.35 0.39 37.79 0.39ZM39.11-2.49L39.11-2.49Q40.23-2.49 41.23-3 42.23-3.52 43.11-4.59L43.11-4.59 43.11-9.72 37.64-8.25Q36.47-7.96 35.96-7.32 35.45-6.69 35.45-5.71L35.45-5.71Q35.45-4.49 36.55-3.49 37.64-2.49 39.11-2.49ZM55.22-1.32L55.22-1.32Q55.32-2.98 55.32-4.25 55.32-5.52 55.32-6.74 55.32-7.96 55.32-9.33L55.32-9.33 55.32-17.72Q55.32-19.43 55.29-21.34 55.27-23.24 55.24-25.02 55.22-26.81 55.2-28.1 55.17-29.39 55.17-29.88L55.17-29.88 51.56-30.32 51.46-31.88 58.34-33.89 59.27-33.2Q59.22-31.15 59.17-29.1 59.13-27.05 59.08-24.37 59.03-21.68 58.98-17.72L58.98-17.72 59.13-17.68Q60.3-19.34 62.1-20.36 63.91-21.39 66.06-21.39L66.06-21.39Q68.5-21.39 70.53-20.19 72.55-18.99 73.82-16.77 75.09-14.55 75.09-11.38L75.09-11.38Q75.09-7.91 73.46-5.25 71.82-2.59 69.09-1.1 66.35 0.39 63.03 0.39L63.03 0.39Q60.93 0.39 58.86-0.1 56.78-0.59 55.22-1.32ZM64.11-2.1L64.11-2.1Q66.99-2.1 68.87-4.27 70.75-6.45 70.8-10.5L70.8-10.5Q70.89-14.4 68.96-16.28 67.04-18.16 64.3-18.16L64.3-18.16Q62.84-18.16 61.45-17.5 60.05-16.85 59.03-15.48L59.03-15.48 59.03-3.61Q60.05-2.93 61.27-2.51 62.5-2.1 64.11-2.1ZM86.61 0.39L86.61 0.39Q84.66 0.39 83.15-0.39 81.63-1.17 80.78-2.39 79.92-3.61 79.92-4.93L79.92-4.93Q79.92-6.54 80.97-7.62 82.02-8.69 84.51-9.52L84.51-9.52 91.94-12.01 91.94-14.5Q91.94-15.72 91.2-16.72 90.47-17.72 89.25-18.31 88.03-18.9 86.52-18.9L86.52-18.9Q85.3-18.9 84.86-18.38 84.42-17.87 84.32-16.36L84.32-16.36 84.22-14.31Q82.46-13.92 81.24-14.43 80.02-14.94 80.02-16.11L80.02-16.11Q80.02-16.94 80.75-17.77 81.49-18.6 82.66-19.36 83.83-20.12 85.17-20.65 86.52-21.19 87.83-21.39L87.83-21.39Q91.4-21.39 93.6-19.51 95.79-17.63 95.84-14.5L95.84-14.5 95.74-6.3Q95.74-5.42 95.82-4.52 95.89-3.61 96.04-3.17L96.04-3.17 99.16-2.59 99.16-1.07 96.77-0.2Q96.09 0.1 95.5 0.24 94.91 0.39 94.52 0.39L94.52 0.39Q93.01 0.39 92.57-1.32L92.57-1.32 92.03-3.22 92.77-3.22Q91.15-1.42 89.67-0.51 88.18 0.39 86.61 0.39ZM87.93-2.49L87.93-2.49Q89.06-2.49 90.06-3 91.06-3.52 91.94-4.59L91.94-4.59 91.94-9.72 86.47-8.25Q85.3-7.96 84.78-7.32 84.27-6.69 84.27-5.71L84.27-5.71Q84.27-4.49 85.37-3.49 86.47-2.49 87.93-2.49ZM113.08 0L101.8 0 101.65-1.76 104.68-2.49Q104.73-2.73 104.78-3.34 104.82-3.96 104.85-5.05 104.87-6.15 104.87-7.71L104.87-7.71 104.92-11.52Q104.92-13.13 104.8-14.72 104.68-16.31 104.53-17.19L104.53-17.19 101.41-17.87 101.41-19.48 107.95-21.29 108.63-20.61 108.44-16.5 108.58-16.46Q110.05-19.29 111.54-20.29 113.03-21.29 114.39-21.29L114.39-21.29Q115.52-21.29 116.27-20.7 117.03-20.12 117.03-19.04L117.03-19.04Q117.03-17.92 116.23-17.29 115.42-16.65 114.2-16.65L114.2-16.65Q113.32-16.65 112.51-17.04 111.71-17.43 110.98-18.12L110.98-18.12 111.86-17.82Q110.98-17.24 110.15-16.16 109.32-15.09 108.58-13.57L108.58-13.57 108.63-9.03Q108.68-7.81 108.73-6.52 108.78-5.22 108.83-4.13 108.88-3.03 108.93-2.49L108.93-2.49 113.17-1.86 113.08 0ZM129.53-1.86L132.5-2.54Q132.6-2.88 132.7-4.83 132.8-6.79 132.8-9.72L132.8-9.72 132.8-18.9Q132.8-22.12 132.7-24.05 132.6-25.98 132.5-26.27L132.5-26.27 129.53-26.76 129.62-28.66 141.24-28.66Q145.98-28.66 148.47-26.9 150.96-25.15 150.96-21.78L150.96-21.78Q150.96-19.09 148.84-17.24 146.71-15.38 143.39-15.14L143.39-15.14 142.81-15.48Q147.49-15.33 149.96-13.45 152.43-11.57 152.43-8.25L152.43-8.25Q152.43-4.49 149.15-2.25 145.88 0 140.27 0L140.27 0 129.62 0 129.53-1.86ZM136.9-20.17L136.9-8.64Q136.9-6.49 136.95-4.76 137-3.03 137.05-2.59L137.05-2.59Q137.68-2.49 138.75-2.37 139.83-2.25 140.46-2.25L140.46-2.25Q144.22-2.25 146.1-3.61 147.98-4.98 147.98-7.76L147.98-7.76Q147.98-10.64 146.01-12.08 144.03-13.53 140.07-13.53L140.07-13.53Q138.22-13.53 137.51-13.53 136.8-13.53 136.26-13.43L136.26-13.43 136.26-15.97Q137.19-15.92 138.02-15.89 138.85-15.87 139.83-15.87L139.83-15.87Q143.05-15.87 144.78-17.29 146.52-18.7 146.52-21.29L146.52-21.29Q146.52-23.83 144.91-25.17 143.3-26.51 140.27-26.51L140.27-26.51 137-26.51Q136.95-26.17 136.92-24.32 136.9-22.46 136.9-20.17L136.9-20.17ZM166.78 0.39L166.78 0.39Q163.95 0.39 161.65-0.88 159.36-2.15 158.04-4.52 156.72-6.88 156.72-10.11L156.72-10.11Q156.72-13.57 158.14-16.11 159.55-18.65 161.85-20.04 164.14-21.44 166.78-21.39L166.78-21.39Q170.59-21.34 172.74-18.87 174.88-16.41 174.88-11.82L174.88-11.82 174.88-10.94 159.89-10.94 159.89-13.09 171.66-13.09 171.13-12.45 171.13-13.48Q171.13-16.26 169.88-17.8 168.63-19.34 166.39-19.34L166.39-19.34Q165.02-19.34 163.75-18.53 162.48-17.72 161.7-16.09 160.92-14.45 160.92-11.96L160.92-11.96 160.92-11.38Q160.92-7.37 162.9-5.13 164.88-2.88 168-2.88L168-2.88Q169.76-2.88 171.1-3.54 172.44-4.2 173.71-5.76L173.71-5.76 174.93-4.64Q173.57-2.1 171.47-0.85 169.37 0.39 166.78 0.39ZM189.53 0L178.25 0 178.11-1.76 181.13-2.49Q181.18-2.73 181.23-3.34 181.28-3.96 181.3-5.05 181.33-6.15 181.33-7.71L181.33-7.71 181.38-11.52Q181.38-13.13 181.25-14.72 181.13-16.31 180.99-17.19L180.99-17.19 177.86-17.87 177.86-19.48 184.4-21.29 185.09-20.61 184.89-16.5 185.04-16.46Q186.5-19.29 187.99-20.29 189.48-21.29 190.85-21.29L190.85-21.29Q191.97-21.29 192.73-20.7 193.49-20.12 193.49-19.04L193.49-19.04Q193.49-17.92 192.68-17.29 191.87-16.65 190.65-16.65L190.65-16.65Q189.77-16.65 188.97-17.04 188.16-17.43 187.43-18.12L187.43-18.12 188.31-17.82Q187.43-17.24 186.6-16.16 185.77-15.09 185.04-13.57L185.04-13.57 185.09-9.03Q185.14-7.81 185.19-6.52 185.23-5.22 185.28-4.13 185.33-3.03 185.38-2.49L185.38-2.49 189.63-1.86 189.53 0ZM206.28 0L195.73 0 195.63-1.81 198.9-2.49Q198.95-2.69 198.98-3.17 199-3.66 199.05-4.74 199.1-5.81 199.1-7.71L199.1-7.71 199.1-10.94Q199.1-12.99 199-14.65 198.9-16.31 198.76-17.19L198.76-17.19 195.49-17.87 195.49-19.48 202.42-21.29 203.15-20.61Q203-19.09 202.93-17.63 202.86-16.16 202.86-14.21L202.86-14.21 202.86-8.06Q202.86-5.81 202.93-4.35 203-2.88 203.1-2.49L203.1-2.49 206.37-1.81 206.28 0ZM201-26.81L201-26.81Q199.73-26.81 198.85-27.64 197.98-28.47 197.98-29.69L197.98-29.69Q197.98-30.86 198.85-31.71 199.73-32.57 201-32.57L201-32.57Q202.27-32.57 203.1-31.71 203.93-30.86 203.93-29.69L203.93-29.69Q203.93-28.47 203.1-27.64 202.27-26.81 201-26.81ZM223.46-4.25L224.34-3.03Q223.41-1.42 221.8-0.51 220.19 0.39 218.43 0.39L218.43 0.39Q215.5 0.39 213.57-1.42 211.64-3.22 211.64-6.84L211.64-6.84 211.79-18.51 208.37-18.51 208.37-19.53 214.67-25.24 215.6-25.24 215.5-19.63 215.45-7.62Q215.45-5.08 216.55-3.86 217.65-2.64 219.65-2.64L219.65-2.64Q220.78-2.64 221.73-3.1 222.68-3.56 223.46-4.25L223.46-4.25ZM222.88-18.51L213.74-18.51 213.74-20.95 222.88-20.95 222.88-18.51ZM233.37 0.39L233.37 0.39Q231.42 0.39 229.9-0.39 228.39-1.17 227.54-2.39 226.68-3.61 226.68-4.93L226.68-4.93Q226.68-6.54 227.73-7.62 228.78-8.69 231.27-9.52L231.27-9.52 238.69-12.01 238.69-14.5Q238.69-15.72 237.96-16.72 237.23-17.72 236.01-18.31 234.79-18.9 233.27-18.9L233.27-18.9Q232.05-18.9 231.61-18.38 231.17-17.87 231.08-16.36L231.08-16.36 230.98-14.31Q229.22-13.92 228-14.43 226.78-14.94 226.78-16.11L226.78-16.11Q226.78-16.94 227.51-17.77 228.24-18.6 229.42-19.36 230.59-20.12 231.93-20.65 233.27-21.19 234.59-21.39L234.59-21.39Q238.16-21.39 240.35-19.51 242.55-17.63 242.6-14.5L242.6-14.5 242.5-6.3Q242.5-5.42 242.58-4.52 242.65-3.61 242.79-3.17L242.79-3.17 245.92-2.59 245.92-1.07 243.53-0.2Q242.84 0.1 242.26 0.24 241.67 0.39 241.28 0.39L241.28 0.39Q239.77 0.39 239.33-1.32L239.33-1.32 238.79-3.22 239.52-3.22Q237.91-1.42 236.42-0.51 234.93 0.39 233.37 0.39ZM234.69-2.49L234.69-2.49Q235.81-2.49 236.81-3 237.81-3.52 238.69-4.59L238.69-4.59 238.69-9.72 233.22-8.25Q232.05-7.96 231.54-7.32 231.03-6.69 231.03-5.71L231.03-5.71Q231.03-4.49 232.13-3.49 233.22-2.49 234.69-2.49Z" opacity="1" transform="matrix(1,0,0,1,0,0)" fill="#919591" class="wordmark-text-0" data-fill-palette-color="primary" id="text-0"></path></svg></g></svg></g></svg></g></svg></g></svg></g></svg></g></svg></g></svg></g><defs></defs></svg><rect width="375.07953" height="128.73714999999987" fill="none" stroke="none" visibility="hidden"></rect></g></svg></g></svg>