<svg xmlns="http://www.w3.org/2000/svg" version="1.1" xmlns:xlink="http://www.w3.org/1999/xlink" xmlns:svgjs="http://svgjs.dev/svgjs" width="1500" height="1500" viewBox="0 0 1500 1500"><rect width="1500" height="1500" fill="#444444"></rect><g transform="matrix(0.6666666666666666,0,0,0.6666666666666666,249.78425655976667,249.78425655976673)"><svg viewBox="0 0 343 343" data-background-color="#444444" preserveAspectRatio="xMidYMid meet" height="1500" width="1500" xmlns="http://www.w3.org/2000/svg" xmlns:xlink="http://www.w3.org/1999/xlink"><g id="tight-bounds" transform="matrix(1,0,0,1,0.0740000000000407,0.07400000000001228)"><svg viewBox="0 0 342.85155851775386 342.85155851775386" height="342.85155851775386" width="342.85155851775386"><g><svg></svg></g><g><svg viewBox="0 0 342.85155851775386 342.85155851775386" height="342.85155851775386" width="342.85155851775386"><g><path d="M0 171.426c0-94.676 76.75-171.426 171.426-171.426 94.676 0 171.426 76.75 171.426 171.426 0 94.676-76.75 171.426-171.426 171.426-94.676 0-171.426-76.75-171.426-171.426zM171.426 340.221c93.223 0 168.795-75.572 168.795-168.795 0-93.223-75.572-168.795-168.795-168.795-93.223 0-168.795 75.572-168.795 168.795 0 93.223 75.572 168.795 168.795 168.795z" data-fill-palette-color="tertiary" fill="#ffffff" stroke="transparent"></path><ellipse rx="164.56874808852186" ry="164.56874808852186" cx="171.42577925887693" cy="171.42577925887693" fill="#ffffff" stroke="transparent" stroke-width="0" fill-opacity="1" data-fill-palette-color="tertiary"></ellipse></g><g transform="matrix(1,0,0,1,64.84655864529837,103.56719232395078)"><svg viewBox="0 0 213.1584412271571 135.7171738698523" height="135.7171738698523" width="213.1584412271571"><g><svg viewBox="0 0 213.1584412271571 135.7171738698523" height="135.7171738698523" width="213.1584412271571"><g><svg viewBox="0 0 213.1584412271571 135.7171738698523" height="135.7171738698523" width="213.1584412271571"><g transform="matrix(1,0,0,1,0,81.63210897889657)"><svg viewBox="0 0 213.1584412271571 54.085064890955735" height="54.085064890955735" width="213.1584412271571"><g id="textblocktransform"><svg viewBox="0 0 213.1584412271571 54.085064890955735" height="54.085064890955735" width="213.1584412271571" id="textblock"><g><svg viewBox="0 0 213.1584412271571 29.17089962383189" height="29.17089962383189" width="213.1584412271571"><g transform="matrix(1,0,0,1,0,0)"><svg width="213.1584412271571" viewBox="2.4 -40.95 303.22 41.5" height="29.17089962383189" data-palette-color="#444444"><path d="M29.2 0Q28.35 0 27.03-2.02 25.7-4.05 23.25-8.4L23.25-8.4Q22.95-8.95 21.58-11.38 20.2-13.8 19.03-15.55 17.85-17.3 16.95-18.3L16.95-18.3 11.9-12.6 11.9-2.95 16.45-2.45 16.45 0 2.4 0 2.4-2.45 6.55-2.95 6.55-34.05 2.45-34.65 2.45-37.15 16.05-37.15 16.05-34.65 11.9-34.05 11.9-16.55 26.6-34.05 22.4-34.65 22.4-37.15 34.75-37.15 34.75-34.65 30.9-34.05 20.1-21.95Q21.85-20.45 23.83-17.6 25.8-14.75 28.65-10.25L28.65-10.25Q31.1-6.4 32.23-4.78 33.35-3.15 34-3L34-3 36.35-2.45 36.35 0 29.2 0ZM38.55-7.5Q38.55-12.2 43.25-14.43 47.95-16.65 55.15-16.8L55.15-16.8 55.15-18.2Q55.15-20.55 54.65-21.9 54.15-23.25 52.92-23.88 51.7-24.5 49.45-24.5L49.45-24.5Q46.9-24.5 44.87-23.78 42.85-23.05 40.85-22L40.85-22 39.6-24.6Q40.25-25.15 42-26.05 43.75-26.95 46.05-27.65 48.35-28.35 50.65-28.35L50.65-28.35Q54.2-28.35 56.27-27.38 58.35-26.4 59.25-24.25 60.15-22.1 60.15-18.5L60.15-18.5 60.15-2.45 63.1-2.45 63.1-0.25Q62.1 0 60.57 0.25 59.05 0.5 57.9 0.5L57.9 0.5Q56.5 0.5 56 0.08 55.5-0.35 55.5-1.8L55.5-1.8 55.5-3.45Q54-1.95 51.82-0.7 49.65 0.55 46.9 0.55L46.9 0.55Q43.3 0.55 40.92-1.53 38.55-3.6 38.55-7.5L38.55-7.5ZM49.05-2.85Q50.35-2.85 52.05-3.65 53.75-4.45 55.15-5.55L55.15-5.55 55.15-14.15Q49.7-14.15 46.92-12.48 44.15-10.8 44.15-8.1L44.15-8.1Q44.15-5.4 45.47-4.13 46.8-2.85 49.05-2.85L49.05-2.85ZM64.25-37.9L64.25-40 72.25-40.95 72.35-40.95 73.5-40.2 73.5-25.15Q75-26.6 77.07-27.55 79.15-28.5 81.7-28.5L81.7-28.5Q84.7-28.5 87.17-27.05 89.65-25.6 91.12-22.55 92.6-19.5 92.6-14.85L92.6-14.85Q92.6-10.55 90.82-7.05 89.05-3.55 85.75-1.5 82.45 0.55 78.1 0.55L78.1 0.55Q74.65 0.55 71.8-0.13 68.95-0.8 68.35-1.35L68.35-1.35 68.35-37.35 64.25-37.9ZM79.65-24.95Q77.75-24.95 76.12-24.08 74.5-23.2 73.5-22.1L73.5-22.1 73.5-3.7Q73.8-3 75.22-2.58 76.65-2.15 78.45-2.15L78.45-2.15Q82.3-2.15 84.65-5.25 87-8.35 87-14.3L87-14.3Q87-19.65 84.95-22.3 82.9-24.95 79.65-24.95L79.65-24.95ZM96.94-7.5Q96.94-12.2 101.64-14.43 106.34-16.65 113.54-16.8L113.54-16.8 113.54-18.2Q113.54-20.55 113.04-21.9 112.54-23.25 111.32-23.88 110.09-24.5 107.84-24.5L107.84-24.5Q105.29-24.5 103.27-23.78 101.24-23.05 99.24-22L99.24-22 97.99-24.6Q98.64-25.15 100.39-26.05 102.14-26.95 104.44-27.65 106.74-28.35 109.04-28.35L109.04-28.35Q112.59-28.35 114.67-27.38 116.74-26.4 117.64-24.25 118.54-22.1 118.54-18.5L118.54-18.5 118.54-2.45 121.49-2.45 121.49-0.25Q120.49 0 118.97 0.25 117.44 0.5 116.29 0.5L116.29 0.5Q114.89 0.5 114.39 0.08 113.89-0.35 113.89-1.8L113.89-1.8 113.89-3.45Q112.39-1.95 110.22-0.7 108.04 0.55 105.29 0.55L105.29 0.55Q101.69 0.55 99.32-1.53 96.94-3.6 96.94-7.5L96.94-7.5ZM107.44-2.85Q108.74-2.85 110.44-3.65 112.14-4.45 113.54-5.55L113.54-5.55 113.54-14.15Q108.09-14.15 105.32-12.48 102.54-10.8 102.54-8.1L102.54-8.1Q102.54-5.4 103.87-4.13 105.19-2.85 107.44-2.85L107.44-2.85ZM125.09 0L125.09-2.45 128.84-2.75 128.84-23.9 125.24-24.8 125.24-27.5 132.14-28.4 132.24-28.4 133.34-27.5 133.34-26.6 133.19-22.7 133.34-22.7Q133.84-23.55 135.14-24.9 136.44-26.25 138.49-27.38 140.54-28.5 142.94-28.5L142.94-28.5Q143.94-28.5 144.59-28.25L144.59-28.25 144.59-22.65Q144.24-22.9 143.47-23.13 142.69-23.35 141.74-23.35L141.74-23.35Q137.59-23.35 134.04-20.8L134.04-20.8 134.04-2.8 140.39-2.4 140.39 0 125.09 0ZM163.94-2.95L163.94-34.05 159.84-34.65 159.84-37.15 166.59-37.15Q168.29-37.15 170.89-37.35L170.89-37.35Q173.29-37.55 174.44-37.55L174.44-37.55Q181.34-37.55 184.31-35.4 187.29-33.25 187.29-29.1L187.29-29.1Q187.29-25.55 185.24-23 183.19-20.45 179.64-19.8L179.64-19.8Q184.44-19.9 187.19-17.55 189.94-15.2 189.94-11.15L189.94-11.15Q189.94-6.1 186.36-2.9 182.79 0.3 174.54 0.3L174.54 0.3Q172.74 0.3 171.09 0.15L171.09 0.15Q167.19 0 166.44 0L166.44 0 159.79 0 159.79-2.45 163.94-2.95ZM169.24-20.75Q169.94-20.7 172.09-20.7L172.09-20.7 174.84-20.7Q178.34-20.7 180.14-22.65 181.94-24.6 181.94-28.2L181.94-28.2Q181.94-31.7 180.14-33.33 178.34-34.95 173.99-34.95L173.99-34.95Q172.19-34.95 170.29-34.75L170.29-34.75 169.24-34.65 169.24-20.75ZM169.24-2.8Q170.39-2.4 174.44-2.4L174.44-2.4Q179.49-2.4 181.76-4.48 184.04-6.55 184.04-10.45L184.04-10.45Q184.04-14.3 182.06-16.05 180.09-17.8 175.69-17.8L175.69-17.8Q170.59-17.8 169.24-17.7L169.24-17.7 169.24-2.8ZM206.28 0.55Q200.23 0.55 197.06-3.4 193.88-7.35 193.88-13.95L193.88-13.95Q193.88-18.3 195.53-21.6 197.18-24.9 200.16-26.7 203.13-28.5 206.93-28.5L206.93-28.5Q211.58-28.5 214.16-25.93 216.73-23.35 216.88-18.55L216.88-18.55Q216.88-15.5 216.53-13.9L216.53-13.9 199.33-13.9Q199.43-8.95 201.63-5.93 203.83-2.9 207.88-2.9L207.88-2.9Q209.88-2.9 212.06-3.63 214.23-4.35 215.43-5.35L215.43-5.35 216.38-3.15Q214.93-1.65 212.08-0.55 209.23 0.55 206.28 0.55L206.28 0.55ZM199.38-16.55L211.38-16.55Q211.53-17.6 211.53-18.7L211.53-18.7Q211.48-21.95 210.16-23.83 208.83-25.7 205.98-25.7L205.98-25.7Q203.08-25.7 201.36-23.6 199.63-21.5 199.38-16.55L199.38-16.55ZM221.28 0L221.28-2.45 225.03-2.75 225.03-23.9 221.43-24.8 221.43-27.5 228.33-28.4 228.43-28.4 229.53-27.5 229.53-26.6 229.38-22.7 229.53-22.7Q230.03-23.55 231.33-24.9 232.63-26.25 234.68-27.38 236.73-28.5 239.13-28.5L239.13-28.5Q240.13-28.5 240.78-28.25L240.78-28.25 240.78-22.65Q240.43-22.9 239.66-23.13 238.88-23.35 237.93-23.35L237.93-23.35Q233.78-23.35 230.23-20.8L230.23-20.8 230.23-2.8 236.58-2.4 236.58 0 221.28 0ZM249.98-32.75Q248.38-32.75 247.58-33.65 246.78-34.55 246.78-35.95L246.78-35.95Q246.78-37.55 247.75-38.6 248.73-39.65 250.43-39.65L250.43-39.65Q252.13-39.65 252.93-38.75 253.73-37.85 253.73-36.45L253.73-36.45Q253.73-34.75 252.75-33.75 251.78-32.75 250.03-32.75L250.03-32.75 249.98-32.75ZM247.98-2.9L247.98-23.9 244.18-24.8 244.18-27.45 251.93-28.4 252.03-28.4 253.18-27.5 253.18-2.85 257.18-2.45 257.18 0 243.93 0 243.93-2.45 247.98-2.9ZM269.28 0.5Q266.43 0.5 265.03-0.8 263.63-2.1 263.63-5.25L263.63-5.25 263.63-24.45 260.03-24.45 260.03-26.7Q260.28-26.75 261.43-27.05 262.58-27.35 262.98-27.6L262.98-27.6Q263.78-28.05 264.23-29.4L264.23-29.4Q264.63-30.35 265.18-32.45 265.73-34.55 265.83-34.95L265.83-34.95 268.78-34.95 268.88-27.75 277.23-27.75 277.23-24.45 268.88-24.45 268.88-9.1Q268.88-6.25 269.05-5.1 269.23-3.95 269.8-3.6 270.38-3.25 271.78-3.25L271.78-3.25Q273.13-3.25 274.75-3.6 276.38-3.95 277.28-4.35L277.28-4.35 278.03-2.1Q276.83-1.2 274.15-0.35 271.48 0.5 269.28 0.5L269.28 0.5ZM281.07-7.5Q281.07-12.2 285.77-14.43 290.47-16.65 297.67-16.8L297.67-16.8 297.67-18.2Q297.67-20.55 297.17-21.9 296.67-23.25 295.45-23.88 294.22-24.5 291.97-24.5L291.97-24.5Q289.42-24.5 287.4-23.78 285.37-23.05 283.37-22L283.37-22 282.12-24.6Q282.77-25.15 284.52-26.05 286.27-26.95 288.57-27.65 290.87-28.35 293.17-28.35L293.17-28.35Q296.72-28.35 298.8-27.38 300.87-26.4 301.77-24.25 302.67-22.1 302.67-18.5L302.67-18.5 302.67-2.45 305.62-2.45 305.62-0.25Q304.62 0 303.1 0.25 301.57 0.5 300.42 0.5L300.42 0.5Q299.02 0.5 298.52 0.08 298.02-0.35 298.02-1.8L298.02-1.8 298.02-3.45Q296.52-1.95 294.35-0.7 292.17 0.55 289.42 0.55L289.42 0.55Q285.82 0.55 283.45-1.53 281.07-3.6 281.07-7.5L281.07-7.5ZM291.57-2.85Q292.87-2.85 294.57-3.65 296.27-4.45 297.67-5.55L297.67-5.55 297.67-14.15Q292.22-14.15 289.45-12.48 286.67-10.8 286.67-8.1L286.67-8.1Q286.67-5.4 288-4.13 289.32-2.85 291.57-2.85L291.57-2.85Z" opacity="1" transform="matrix(1,0,0,1,0,0)" fill="#444444" class="wordmark-text-0" data-fill-palette-color="quaternary" id="text-0"></path></svg></g></svg></g><g transform="matrix(1,0,0,1,0,36.05744892342763)"><svg viewBox="0 0 213.1584412271571 18.027615967528106" height="18.027615967528106" width="213.1584412271571"><g transform="matrix(1,0,0,1,0,0)"><svg width="213.1584412271571" viewBox="1.8 -33.4 402.02 34" height="18.027615967528106" data-palette-color="#444444"><path d="M1.8-33.4L15.95-33.4Q22-33.4 24.73-31.45 27.45-29.5 27.45-25.9 27.45-22.3 25.53-20.18 23.6-18.05 19.9-17.65L19.9-17.65Q24.75-16.8 26.95-14.78 29.15-12.75 29.15-9.05L29.15-9.05Q29.15-4.45 25.35-2.23 21.55 0 15.5 0L15.5 0 2.4 0 2.4-1.2 6.15-1.65 6.15-31.75 1.8-32.2 1.8-33.4ZM18.05-16.2L18.05-16.2Q16.15-16.6 14.35-16.6 12.55-16.6 11.4-16.55L11.4-16.55 11.4-1.4Q12.65-1.05 13.68-1.05 14.7-1.05 16.13-1.2 17.55-1.35 19.43-2.02 21.3-2.7 22.55-4.65 23.8-6.6 23.8-9.45L23.8-9.45Q23.8-15 18.05-16.2ZM14.65-32.05L11.4-32.05 11.4-18.05 13.5-18.05Q21.95-18.05 21.95-25.75L21.95-25.75Q21.95-29.1 20.23-30.58 18.5-32.05 14.65-32.05L14.65-32.05ZM88.1-5.4L88.1-5.4Q88.1-2.15 90.75-1.55L90.75-1.55Q91.35-1.4 91.9-1.4L91.9-1.4Q93.8-1.4 95.85-3.03 97.9-4.65 98-7.4L98-7.4 98-11.7Q88.1-11.6 88.1-5.4ZM90.1 0.6L90.1 0.6Q87.25 0.6 85.23-0.98 83.2-2.55 83.2-5.4L83.2-5.4Q83.25-9.25 87.08-11.15 90.9-13.05 98-13.05L98-13.05 98-17.35Q98-23.7 93.4-23.7L93.4-23.7Q91.05-23.7 89.6-21.75L89.6-21.75Q88.6-20.4 88.6-18.4L88.6-18.4Q88.6-17.55 88.8-16.6L88.8-16.6Q88.1-16.1 87.38-16.1 86.65-16.1 85.95-16.4L85.95-16.4Q84.35-17 84.35-18.7L84.35-18.7Q84.35-21 86-22.5L86-22.5Q88.7-24.95 93.45-24.95 98.2-24.95 100.35-22.93 102.5-20.9 102.5-16.55L102.5-16.55 102.5-1.4 106.7-1.2 106.75-0.05 98.4 0.55 97.95-3.9Q95.65 0.6 90.1 0.6ZM174.06-25L174.06-25Q175.36-25 176.11-24.38 176.86-23.75 176.86-22.65L176.86-22.65Q176.86-20.75 175.41-20.15L175.41-20.15Q174.61-20.8 172.51-20.8 170.41-20.8 168.48-19.43 166.56-18.05 166.56-16.3L166.56-16.3 166.56-1.45 171.06-1.2 171.06 0 158.36 0 158.36-1.2 161.66-1.4 161.66-22.75 157.71-22.95 157.71-24.1 166.56-24.65 166.26-18.5 166.46-18.5Q167.31-21.2 169.58-23.1 171.86-25 174.06-25ZM228.11-33.4L242.26-33.4Q248.31-33.4 251.03-31.45 253.76-29.5 253.76-25.9 253.76-22.3 251.83-20.18 249.91-18.05 246.21-17.65L246.21-17.65Q251.06-16.8 253.26-14.78 255.46-12.75 255.46-9.05L255.46-9.05Q255.46-4.45 251.66-2.23 247.86 0 241.81 0L241.81 0 228.71 0 228.71-1.2 232.46-1.65 232.46-31.75 228.11-32.2 228.11-33.4ZM244.36-16.2L244.36-16.2Q242.46-16.6 240.66-16.6 238.86-16.6 237.71-16.55L237.71-16.55 237.71-1.4Q238.96-1.05 239.98-1.05 241.01-1.05 242.43-1.2 243.86-1.35 245.73-2.02 247.61-2.7 248.86-4.65 250.11-6.6 250.11-9.45L250.11-9.45Q250.11-15 244.36-16.2ZM240.96-32.05L237.71-32.05 237.71-18.05 239.81-18.05Q248.26-18.05 248.26-25.75L248.26-25.75Q248.26-29.1 246.53-30.58 244.81-32.05 240.96-32.05L240.96-32.05ZM321.26 0.55Q316.11 0.55 312.96-2.95 309.81-6.45 309.81-12.2 309.81-17.95 313.14-21.45 316.46-24.95 321.51-24.95 326.56-24.95 329.06-22.68 331.56-20.4 331.56-16.35L331.56-16.35Q331.56-15.15 331.36-13.95L331.36-13.95 315.21-13.95 315.21-12.2Q315.21-6.6 316.81-3.73 318.41-0.85 322.06-0.85L322.06-0.85Q327.21-0.85 330.01-5.35L330.01-5.35Q331.11-5 331.11-4.3L331.11-4.3Q331.11-3.05 328.81-1.4L328.81-1.4Q327.71-0.6 325.71-0.03 323.71 0.55 321.26 0.55L321.26 0.55ZM326.81-17.4L326.81-17.4Q326.81-19.7 325.86-21.35L325.86-21.35Q324.56-23.55 321.66-23.55L321.66-23.55Q316.26-23.55 315.36-15.75L315.36-15.75 326.71-15.75Q326.81-16.6 326.81-17.4ZM401.02-25L401.02-25Q402.32-25 403.07-24.38 403.82-23.75 403.82-22.65L403.82-22.65Q403.82-20.75 402.37-20.15L402.37-20.15Q401.57-20.8 399.47-20.8 397.37-20.8 395.44-19.43 393.52-18.05 393.52-16.3L393.52-16.3 393.52-1.45 398.02-1.2 398.02 0 385.32 0 385.32-1.2 388.62-1.4 388.62-22.75 384.67-22.95 384.67-24.1 393.52-24.65 393.22-18.5 393.42-18.5Q394.27-21.2 396.54-23.1 398.82-25 401.02-25Z" opacity="1" transform="matrix(1,0,0,1,0,0)" fill="#444444" class="slogan-text-1" data-fill-palette-color="quaternary" id="text-1"></path></svg></g></svg></g></svg></g></svg></g><g transform="matrix(1,0,0,1,70.8313442452173,0)"><svg viewBox="0 0 71.49575273672252 74.74555967930083" height="74.74555967930083" width="71.49575273672252"><g><svg xmlns="http://www.w3.org/2000/svg" xmlns:xlink="http://www.w3.org/1999/xlink" version="1.1" x="0" y="0" viewBox="2 1 44 46" enable-background="new 0 0 48 48" xml:space="preserve" height="74.74555967930083" width="71.49575273672252" class="icon-icon-0" data-fill-palette-color="quaternary" id="icon-0"><path fill-rule="evenodd" clip-rule="evenodd" d="M41 47L41 47H7l0 0c-2.762 0-5-2.238-5-5V2c0-0.552 0.447-1 1-1l0 0h34l0 0c0.414 0 0.77 0.252 0.922 0.611C37.972 1.73 38 1.862 38 2v0 14h7c0.553 0 1 0.448 1 1v25C46 44.762 43.762 47 41 47zM36 42V3H4v39l0 0 0 0c0 1.657 1.344 3 3 3h30.022C36.39 44.162 36 43.131 36 42zM44 18h-6v24c0 1.657 1.343 3 3 3s3-1.343 3-3V18zM7 40c0-0.552 0.447-1 1-1h9c0.553 0 1 0.448 1 1 0 0.553-0.447 1-1 1H8C7.447 41 7 40.553 7 40zM11.666 23.715c-0.381 0.381-0.999 0.381-1.381 0-0.381-0.381-0.381-1 0-1.381l5.905-5.905c0.032-0.047 0.053-0.101 0.095-0.143 0.197-0.197 0.457-0.288 0.715-0.282 0.258-0.006 0.518 0.084 0.715 0.282 0.042 0.042 0.062 0.096 0.095 0.143l4.19 4.19 2.19-2.19c0.032-0.047 0.053-0.101 0.095-0.143 0.197-0.197 0.457-0.288 0.715-0.281 0.258-0.007 0.518 0.084 0.715 0.281 0.042 0.042 0.062 0.096 0.095 0.143l3.905 3.905c0.381 0.381 0.381 1 0 1.381-0.382 0.381-1 0.381-1.381 0L25 20.381 23.381 22l0.334 0.334c0.381 0.381 0.381 1 0 1.381s-1 0.381-1.381 0L17 18.381 11.666 23.715zM23 29h9c0.553 0 1 0.448 1 1 0 0.553-0.447 1-1 1h-9c-0.553 0-1-0.447-1-1C22 29.448 22.447 29 23 29zM23 34h9c0.553 0 1 0.448 1 1 0 0.553-0.447 1-1 1h-9c-0.553 0-1-0.447-1-1C22 34.448 22.447 34 23 34zM23 39h9c0.553 0 1 0.448 1 1 0 0.553-0.447 1-1 1h-9c-0.553 0-1-0.447-1-1C22 39.448 22.447 39 23 39zM24 15.5c0 0.829-0.672 1.5-1.5 1.5S21 16.329 21 15.5s0.672-1.5 1.5-1.5S24 14.671 24 15.5zM27 10H13c-0.553 0-1-0.448-1-1s0.447-1 1-1h14c0.553 0 1 0.448 1 1S27.553 10 27 10zM8 34h9c0.553 0 1 0.448 1 1 0 0.553-0.447 1-1 1H8c-0.553 0-1-0.447-1-1C7 34.448 7.447 34 8 34zM18 30c0 0.553-0.447 1-1 1H8c-0.553 0-1-0.447-1-1 0-0.552 0.447-1 1-1h9C17.553 29 18 29.448 18 30z" fill="#444444" data-fill-palette-color="quaternary"></path></svg></g></svg></g><g></g></svg></g></svg></g></svg></g></svg></g><defs></defs></svg><rect width="342.85155851775386" height="342.85155851775386" fill="none" stroke="none" visibility="hidden"></rect></g></svg></g></svg>