<svg xmlns="http://www.w3.org/2000/svg" version="1.1" xmlns:xlink="http://www.w3.org/1999/xlink" xmlns:svgjs="http://svgjs.dev/svgjs" width="1500" height="1500" viewBox="0 0 1500 1500"><rect width="1500" height="1500" fill="#ffffff"></rect><g transform="matrix(0.6666666666666666,0,0,0.6666666666666666,249.39393939393938,438.58569500674764)"><svg viewBox="0 0 396 247" data-background-color="#ffffff" preserveAspectRatio="xMidYMid meet" height="935" width="1500" xmlns="http://www.w3.org/2000/svg" xmlns:xlink="http://www.w3.org/1999/xlink"><g id="tight-bounds" transform="matrix(1,0,0,1,0.2400000000000091,-0.09999999999999432)"><svg viewBox="0 0 395.52 247.2" height="247.2" width="395.52"><g><svg></svg></g><g><svg viewBox="0 0 395.52 247.2" height="247.2" width="395.52"><g transform="matrix(1,0,0,1,75.54432,93.59433845039159)"><svg viewBox="0 0 244.43135999999998 60.0113230992168" height="60.0113230992168" width="244.43135999999998"><g><svg viewBox="0 0 244.43135999999998 60.0113230992168" height="60.0113230992168" width="244.43135999999998"><g><svg viewBox="0 0 244.43135999999998 60.0113230992168" height="60.0113230992168" width="244.43135999999998"><g><svg viewBox="0 0 244.43135999999998 60.0113230992168" height="60.0113230992168" width="244.43135999999998"><g id="textblocktransform"><svg viewBox="0 0 244.43135999999998 60.0113230992168" height="60.0113230992168" width="244.43135999999998" id="textblock"><g><svg viewBox="0 0 244.43135999999998 32.367240123499144" height="32.367240123499144" width="244.43135999999998"><g transform="matrix(1,0,0,1,0,0)"><svg width="244.43135999999998" viewBox="2.75 -38 291.47 38.6" height="32.367240123499144" data-palette-color="#003231"><path d="M2.75 0L2.75-2.3 6.5-2.3 6.5-32.6 2.75-32.6 2.75-34.9 14.55-34.9 14.55-32.6 10.8-32.6 10.8-15.9 11-15.9 15.65-21.15 26.15-32.6 22.15-32.6 22.15-34.9 32.9-34.9 32.9-32.6 29.55-32.6 18.75-20.95 30.8-2.3 34.25-2.3 34.25 0 22.3 0 22.3-2.3 25.85-2.3 15.75-17.85 10.8-12.5 10.8-2.3 14.55-2.3 14.55 0 2.75 0ZM44.75 0.6L44.75 0.6Q41.15 0.6 39.12-1.28 37.1-3.15 37.1-6.4L37.1-6.4Q37.1-8.25 37.7-9.68 38.3-11.1 39.67-12.05 41.05-13 43.25-13.5 45.45-14 48.6-14L48.6-14 52.3-14 52.3-17.8Q52.3-20.85 50.82-22.48 49.35-24.1 46.4-24.1L46.4-24.1Q45.1-24.1 44-23.88 42.9-23.65 42.2-23.25L42.2-23.25 42.2-23.15Q42.75-22.85 43.27-22.25 43.8-21.65 43.8-20.55L43.8-20.55Q43.8-19.25 43.05-18.53 42.3-17.8 41.05-17.8L41.05-17.8Q39.85-17.8 39.07-18.53 38.3-19.25 38.3-20.7L38.3-20.7Q38.3-21.8 38.95-22.83 39.6-23.85 40.8-24.65 42-25.45 43.77-25.93 45.55-26.4 47.8-26.4L47.8-26.4Q51.85-26.4 54.12-24.3 56.4-22.2 56.4-18.4L56.4-18.4 56.4-2.15 60.15-2.15 60.15-0.4Q59.6 0 58.67 0.3 57.75 0.6 56.6 0.6L56.6 0.6Q54.65 0.6 53.6-0.5 52.55-1.6 52.55-3.45L52.55-3.45 52.55-3.8 52.3-3.8Q51.95-2.95 51.37-2.15 50.8-1.35 49.9-0.75 49-0.15 47.72 0.23 46.45 0.6 44.75 0.6ZM46.5-2.15L46.5-2.15Q48.9-2.15 50.6-3.38 52.3-4.6 52.3-7.15L52.3-7.15 52.3-12 49.05-12Q46.9-12 45.45-11.68 44-11.35 43.15-10.73 42.3-10.1 41.92-9.2 41.55-8.3 41.55-7.1L41.55-7.1 41.55-6.05Q41.55-4.15 42.85-3.15 44.15-2.15 46.5-2.15ZM78.25 0.6L78.25 0.6Q75.15 0.6 73.25-0.7 71.35-2 70.5-3.85L70.5-3.85 70.3-3.85 68 0 66.35 0 66.35-34.15 62.65-34.8 62.65-36.55 70.45-38 70.45-21.9 70.65-21.9Q71.5-23.75 73.35-25.08 75.2-26.4 78.25-26.4L78.25-26.4Q83.05-26.4 85.92-22.93 88.8-19.45 88.8-12.9L88.8-12.9Q88.8-6.35 85.92-2.88 83.05 0.6 78.25 0.6ZM77.05-2.25L77.05-2.25Q80.5-2.25 82.42-4.58 84.35-6.9 84.35-10.8L84.35-10.8 84.35-15Q84.35-18.9 82.42-21.23 80.5-23.55 77.05-23.55L77.05-23.55Q75.85-23.55 74.65-23.2 73.45-22.85 72.52-22.2 71.6-21.55 71.02-20.58 70.45-19.6 70.45-18.4L70.45-18.4 70.45-7.4Q70.45-6.2 71.02-5.23 71.6-4.25 72.52-3.6 73.45-2.95 74.65-2.6 75.85-2.25 77.05-2.25ZM101.94 0.6L101.94 0.6Q98.34 0.6 96.32-1.28 94.29-3.15 94.29-6.4L94.29-6.4Q94.29-8.25 94.89-9.68 95.49-11.1 96.87-12.05 98.24-13 100.44-13.5 102.64-14 105.79-14L105.79-14 109.49-14 109.49-17.8Q109.49-20.85 108.02-22.48 106.54-24.1 103.59-24.1L103.59-24.1Q102.29-24.1 101.19-23.88 100.09-23.65 99.39-23.25L99.39-23.25 99.39-23.15Q99.94-22.85 100.47-22.25 100.99-21.65 100.99-20.55L100.99-20.55Q100.99-19.25 100.24-18.53 99.49-17.8 98.24-17.8L98.24-17.8Q97.04-17.8 96.27-18.53 95.49-19.25 95.49-20.7L95.49-20.7Q95.49-21.8 96.14-22.83 96.79-23.85 97.99-24.65 99.19-25.45 100.97-25.93 102.74-26.4 104.99-26.4L104.99-26.4Q109.04-26.4 111.32-24.3 113.59-22.2 113.59-18.4L113.59-18.4 113.59-2.15 117.34-2.15 117.34-0.4Q116.79 0 115.87 0.3 114.94 0.6 113.79 0.6L113.79 0.6Q111.84 0.6 110.79-0.5 109.74-1.6 109.74-3.45L109.74-3.45 109.74-3.8 109.49-3.8Q109.14-2.95 108.57-2.15 107.99-1.35 107.09-0.75 106.19-0.15 104.92 0.23 103.64 0.6 101.94 0.6ZM103.69-2.15L103.69-2.15Q106.09-2.15 107.79-3.38 109.49-4.6 109.49-7.15L109.49-7.15 109.49-12 106.24-12Q104.09-12 102.64-11.68 101.19-11.35 100.34-10.73 99.49-10.1 99.12-9.2 98.74-8.3 98.74-7.1L98.74-7.1 98.74-6.05Q98.74-4.15 100.04-3.15 101.34-2.15 103.69-2.15ZM121.59 0L121.59-2.3 125.29-2.3 125.29-22.55 121.59-23.2 121.59-24.9 129.29-26.4 129.29-21.9 129.54-21.9Q129.89-22.7 130.42-23.5 130.94-24.3 131.72-24.95 132.49-25.6 133.52-26 134.54-26.4 135.89-26.4L135.89-26.4Q138.09-26.4 139.42-25.35 140.74-24.3 140.74-22.3L140.74-22.3Q140.74-20.8 139.99-19.95 139.24-19.1 138.04-19.1L138.04-19.1Q136.69-19.1 135.89-19.83 135.09-20.55 135.09-21.7L135.09-21.7Q135.09-22.7 135.52-23.33 135.94-23.95 136.49-24.05L136.49-24.05 136.49-24.15Q136.29-24.2 135.99-24.23 135.69-24.25 135.24-24.25L135.24-24.25Q134.19-24.25 133.14-23.73 132.09-23.2 131.27-22.38 130.44-21.55 129.92-20.5 129.39-19.45 129.39-18.4L129.39-18.4 129.39-2.3 134.09-2.3 134.09 0 121.59 0ZM155.59 0L155.59-2.3 159.34-2.3 159.34-32.6 155.59-32.6 155.59-34.9 172.29-34.9Q176.69-34.9 179.16-32.65 181.64-30.4 181.64-26.65L181.64-26.65Q181.64-24.8 181.09-23.35 180.54-21.9 179.61-20.85 178.69-19.8 177.51-19.15 176.34-18.5 175.09-18.3L175.09-18.3 175.09-18.15Q176.39-18.05 177.79-17.5 179.19-16.95 180.34-15.9 181.49-14.85 182.24-13.3 182.99-11.75 182.99-9.7L182.99-9.7Q182.99-7.5 182.31-5.7 181.64-3.9 180.41-2.63 179.19-1.35 177.49-0.68 175.79 0 173.79 0L173.79 0 155.59 0ZM163.64-16.8L163.64-2.45 172.24-2.45Q175.14-2.45 176.76-4.15 178.39-5.85 178.39-8.55L178.39-8.55 178.39-10.75Q178.39-13.4 176.76-15.1 175.14-16.8 172.24-16.8L172.24-16.8 163.64-16.8ZM163.64-32.45L163.64-19.25 171.44-19.25Q174.14-19.25 175.59-20.8 177.04-22.35 177.04-24.75L177.04-24.75 177.04-26.95Q177.04-29.35 175.59-30.9 174.14-32.45 171.44-32.45L171.44-32.45 163.64-32.45ZM200.28 0.6L200.28 0.6Q197.53 0.6 195.36-0.38 193.18-1.35 191.68-3.1 190.18-4.85 189.38-7.35 188.58-9.85 188.58-12.9L188.58-12.9Q188.58-15.9 189.46-18.38 190.33-20.85 191.86-22.65 193.38-24.45 195.48-25.43 197.58-26.4 200.08-26.4L200.08-26.4Q202.63-26.4 204.63-25.5 206.63-24.6 208.01-22.98 209.38-21.35 210.13-19.1 210.88-16.85 210.88-14.2L210.88-14.2 210.88-13.05 193.13-13.05 193.13-11.75Q193.13-7.5 195.26-5.05 197.38-2.6 200.93-2.6L200.93-2.6Q204.03-2.6 205.86-3.88 207.68-5.15 208.73-7.2L208.73-7.2 210.38-6.15Q209.88-4.85 209.01-3.63 208.13-2.4 206.88-1.48 205.63-0.55 203.98 0.03 202.33 0.6 200.28 0.6ZM193.13-15.95L193.13-15.35 206.58-15.35 206.58-15.85Q206.58-17.6 206.21-19.1 205.83-20.6 205.03-21.7 204.23-22.8 203.01-23.43 201.78-24.05 200.08-24.05L200.08-24.05Q198.38-24.05 197.08-23.45 195.78-22.85 194.91-21.75 194.03-20.65 193.58-19.18 193.13-17.7 193.13-15.95L193.13-15.95ZM215.63 0L215.63-2.3 219.33-2.3 219.33-22.55 215.63-23.2 215.63-24.9 223.33-26.4 223.33-21.9 223.58-21.9Q223.93-22.7 224.46-23.5 224.98-24.3 225.76-24.95 226.53-25.6 227.56-26 228.58-26.4 229.93-26.4L229.93-26.4Q232.13-26.4 233.46-25.35 234.78-24.3 234.78-22.3L234.78-22.3Q234.78-20.8 234.03-19.95 233.28-19.1 232.08-19.1L232.08-19.1Q230.73-19.1 229.93-19.83 229.13-20.55 229.13-21.7L229.13-21.7Q229.13-22.7 229.56-23.33 229.98-23.95 230.53-24.05L230.53-24.05 230.53-24.15Q230.33-24.2 230.03-24.23 229.73-24.25 229.28-24.25L229.28-24.25Q228.23-24.25 227.18-23.73 226.13-23.2 225.31-22.38 224.48-21.55 223.96-20.5 223.43-19.45 223.43-18.4L223.43-18.4 223.43-2.3 228.13-2.3 228.13 0 215.63 0ZM243.53-31.75L243.53-31.75Q242.23-31.75 241.55-32.52 240.88-33.3 240.88-34.4L240.88-34.4 240.88-34.65Q240.88-35.75 241.55-36.52 242.23-37.3 243.53-37.3L243.53-37.3Q244.83-37.3 245.53-36.52 246.23-35.75 246.23-34.65L246.23-34.65 246.23-34.4Q246.23-33.3 245.53-32.52 244.83-31.75 243.53-31.75ZM237.78 0L237.78-2.3 241.48-2.3 241.48-22.55 237.78-23.2 237.78-24.9 245.58-26.4 245.58-2.3 249.28-2.3 249.28 0 237.78 0ZM261.13 0.3L261.13 0.3Q258.48 0.3 257.48-0.78 256.48-1.85 256.48-4.45L256.48-4.45 256.48-23.35 253.18-23.35 253.18-25.8 253.63-25.8Q254.68-25.8 255.3-25.95 255.93-26.1 256.3-26.38 256.68-26.65 256.85-27.08 257.03-27.5 257.18-28.05L257.18-28.05 258.33-32.5 260.58-32.5 260.58-25.8 267.23-25.8 267.23-23.35 260.58-23.35 260.58-2.45 267.23-2.45 267.23-0.8Q266.78-0.55 266.1-0.35 265.43-0.15 264.6 0 263.78 0.15 262.88 0.23 261.98 0.3 261.13 0.3ZM278.82 0.6L278.82 0.6Q275.22 0.6 273.2-1.28 271.17-3.15 271.17-6.4L271.17-6.4Q271.17-8.25 271.77-9.68 272.37-11.1 273.75-12.05 275.12-13 277.32-13.5 279.52-14 282.67-14L282.67-14 286.37-14 286.37-17.8Q286.37-20.85 284.9-22.48 283.42-24.1 280.47-24.1L280.47-24.1Q279.17-24.1 278.07-23.88 276.97-23.65 276.27-23.25L276.27-23.25 276.27-23.15Q276.82-22.85 277.35-22.25 277.87-21.65 277.87-20.55L277.87-20.55Q277.87-19.25 277.12-18.53 276.37-17.8 275.12-17.8L275.12-17.8Q273.92-17.8 273.15-18.53 272.37-19.25 272.37-20.7L272.37-20.7Q272.37-21.8 273.02-22.83 273.67-23.85 274.87-24.65 276.07-25.45 277.85-25.93 279.62-26.4 281.87-26.4L281.87-26.4Q285.92-26.4 288.2-24.3 290.47-22.2 290.47-18.4L290.47-18.4 290.47-2.15 294.22-2.15 294.22-0.4Q293.67 0 292.75 0.3 291.82 0.6 290.67 0.6L290.67 0.6Q288.72 0.6 287.67-0.5 286.62-1.6 286.62-3.45L286.62-3.45 286.62-3.8 286.37-3.8Q286.02-2.95 285.45-2.15 284.87-1.35 283.97-0.75 283.07-0.15 281.8 0.23 280.52 0.6 278.82 0.6ZM280.57-2.15L280.57-2.15Q282.97-2.15 284.67-3.38 286.37-4.6 286.37-7.15L286.37-7.15 286.37-12 283.12-12Q280.97-12 279.52-11.68 278.07-11.35 277.22-10.73 276.37-10.1 276-9.2 275.62-8.3 275.62-7.1L275.62-7.1 275.62-6.05Q275.62-4.15 276.92-3.15 278.22-2.15 280.57-2.15Z" opacity="1" transform="matrix(1,0,0,1,0,0)" fill="#003231" class="wordmark-text-0" data-fill-palette-color="primary" id="text-0"></path></svg></g></svg></g><g transform="matrix(1,0,0,1,0,40.00836870289433)"><svg viewBox="0 0 244.43135999999998 20.002954396322473" height="20.002954396322473" width="244.43135999999998"><g transform="matrix(1,0,0,1,0,0)"><svg width="244.43135999999998" viewBox="2.32 -37.38 464 37.940000000000005" height="20.002954396322473" data-palette-color="#003231"><path d="M10.82-18.38L27.17-34.23 24.41-34.74 24.41-36.82 35.86-36.82 35.86-34.74 31.49-34.23 15.97-19.31 30.86-3.39 32.76-2.47 35.94-2.08 35.94 0 27.34 0 10.82-18.38ZM2.32-34.74L2.32-36.82 14.28-36.82 14.28-34.74 10.62-34.18 10.62-2.64 14.28-2.08 14.28 0 2.32 0 2.32-2.08 6.1-2.64 6.1-34.18 2.32-34.74ZM107.18-28.27L107.18-28.27Q107.18-26.37 106.51-24.98 105.84-23.58 104.84-22.58L104.84-22.58Q103.06-20.85 100.4-19.85L100.4-19.85Q104.69-19.02 106.69-17.29L106.69-17.29Q109.43-14.89 109.43-10.16L109.43-10.16Q109.43-5.91 106.16-3.1L106.16-3.1Q102.57 0 96.1 0L96.1 0 79.16 0 79.16-2.08 82.87-2.64 82.87-34.18 79.16-34.74 79.16-36.82 95.44-36.82Q101.2-36.82 104.28-34.47L104.28-34.47Q107.18-32.28 107.18-28.27ZM95.56-18.04L87.46-18.04 87.46-2.93 94.37-2.93Q102.47-2.93 104.18-7.35L104.18-7.35Q104.72-8.74 104.72-10.39 104.72-12.04 104.14-13.42 103.57-14.79 102.42-15.82L102.42-15.82Q99.93-18.04 95.56-18.04L95.56-18.04ZM94.88-33.86L87.46-33.86 87.46-20.7 94.41-20.7Q99.59-20.7 101.64-24.22L101.64-24.22Q102.42-25.54 102.42-27.59L102.42-27.59Q102.42-30.86 100.62-32.36 98.81-33.86 94.88-33.86L94.88-33.86ZM164.59-2.34L164.59-2.34Q166.39-2.34 167.87-2.7 169.35-3.05 170.42-3.81L170.42-3.81Q172.72-5.4 172.72-8.45L172.72-8.45Q172.72-11.04 171.03-12.7L171.03-12.7Q169.25-14.4 165.26-16.15 161.27-17.9 159.18-19.27 157.09-20.65 155.89-22.07L155.89-22.07Q153.72-24.56 153.72-28.1L153.72-28.1Q153.72-32.2 157.26-34.86L157.26-34.86Q160.56-37.38 165.25-37.38L165.25-37.38Q168.93-37.38 172.62-36.04L172.62-36.04Q174.16-35.42 175.4-34.69L175.4-34.69 174.55-28.17 172.5-28.17Q172.5-31.54 170.67-33.07 168.83-34.59 165.37-34.59L165.37-34.59Q160.58-34.59 158.82-31.47L158.82-31.47Q158.26-30.44 158.26-29.17 158.26-27.91 158.63-26.89 159-25.88 160.05-24.9L160.05-24.9Q162.1-22.92 167.76-20.56L167.76-20.56Q175.67-17.19 176.99-12.6L176.99-12.6Q177.38-11.16 177.38-9.53 177.38-7.91 176.83-6.46 176.28-5 175.33-3.87 174.38-2.73 173.12-1.9 171.86-1.07 170.45-0.54L170.45-0.54Q164.17 1.9 157.26-0.93L157.26-0.93Q154.75-1.98 152.82-3.49L152.82-3.49 153.84-10.5 155.92-10.5Q155.92-5.59 159.02-3.66L159.02-3.66Q161.14-2.34 164.59-2.34ZM251.73 0L228.09-29.74 228.09-2.64 231.8-2.08 231.8 0 221.5 0 221.5-2.08 225.29-2.64 225.29-34.18 221.5-34.74 221.5-36.82 228.24-36.82 251.9-7.08 251.9-34.18 248.21-34.74 248.21-36.82 258.44-36.82 258.44-34.74 254.75-34.18 254.75 0 251.73 0ZM322.09-5.59L322.09-5.59 323.48-4Q319.6-0.51 315.96 0.37L315.96 0.37Q315.16 0.56 314.38 0.56L314.38 0.56Q309.01 0.56 305.64-2.83L305.64-2.83Q302.29-6.15 302.29-11.5L302.29-11.5Q302.29-16.82 305.44-20.61L305.44-20.61Q308.91-24.73 314.45-24.73L314.45-24.73Q318.28-24.73 320.92-21.97L320.92-21.97Q323.73-19.09 323.73-14.48L323.73-14.48 322.58-13.45 306.66-12.3Q306.71-7.86 309.54-5.2L309.54-5.2Q312.08-2.86 315.45-2.86 318.82-2.86 322.09-5.59ZM306.83-14.6L306.83-14.6 319.38-15.75Q319.21-19.8 316.26-21.31L316.26-21.31Q315.21-21.85 313.57-21.85 311.94-21.85 310.65-21.04 309.37-20.24 308.54-19.09L308.54-19.09Q306.96-16.92 306.83-14.6ZM404.37-21.56L395.85 0 392.46 0 386.31-17.26 379.93 0 376.54 0 367.97-21.56 365.19-22.12 365.19-24.15 375.27-24.15 375.27-22.12 372.44-21.56 379.13-3.96 384.89-20.36 384.18-21.56 381.08-22.12 381.08-24.15 391.73-24.15 391.73-22.12 388.72-21.56 395.05-3.96Q395.05-3.96 401.44-21.68L401.44-21.68 398.61-22.12 398.61-24.15 407.11-24.15 407.11-22.12 404.37-21.56ZM449.59-7.13L450.86-7.13Q450.86-2.03 457.11-2.03L457.11-2.03Q459.48-2.03 460.9-3.08L460.9-3.08Q462.19-4.03 462.19-5.47L462.19-5.47Q462.19-6.98 461.43-7.81L461.43-7.81Q459.95-9.45 457.13-10.42 454.31-11.4 452.9-12.29 451.5-13.18 450.69-14.16L450.69-14.16Q449.3-15.82 449.3-17.74 449.3-19.65 450.02-20.87 450.74-22.09 451.91-22.95L451.91-22.95Q454.4-24.73 457.67-24.73L457.67-24.73Q461.61-24.73 464.53-23L464.53-23 463.97-18.29 462.66-18.29Q462.66-22.12 457.55-22.12L457.55-22.12Q455.33-22.12 454.18-21.25 453.04-20.39 453.04-19.09L453.04-19.09Q453.04-16.24 459.41-13.92L459.41-13.92Q465.37-11.72 466.12-8.18L466.12-8.18Q466.32-7.18 466.32-5.8 466.32-4.42 465.43-3.13 464.53-1.83 463.19-1.03L463.19-1.03Q460.58 0.56 457.16 0.56L457.16 0.56Q453.82 0.56 450.91-0.73L450.91-0.73Q449.62-1.29 448.67-2.03L448.67-2.03 449.59-7.13Z" opacity="1" transform="matrix(1,0,0,1,0,0)" fill="#003231" class="slogan-text-1" data-fill-palette-color="secondary" id="text-1"></path></svg></g></svg></g></svg></g></svg></g><g></g></svg></g></svg></g></svg></g><g><path d="M81.487 85.953A122.216 122.216 0 0 1 314.033 85.953L311.114 85.953A119.297 119.297 0 0 0 84.406 85.953L81.487 85.953M81.487 161.247A122.216 122.216 0 0 0 314.033 161.247L311.114 161.247A119.297 119.297 0 0 1 84.406 161.247L81.487 161.247" fill="#003231" stroke="transparent" data-fill-palette-color="tertiary"></path></g></svg></g><defs></defs></svg><rect width="395.52" height="247.2" fill="none" stroke="none" visibility="hidden"></rect></g></svg></g></svg>